<?xml version="1.0" encoding="UTF-8"?>
<svg xmlns="http://www.w3.org/2000/svg" width="67.22mm" height="94.94mm" viewBox="0 0 190.55 269.13">
  <defs>
    <style>
      .cls-1 {
        letter-spacing: -.02em;
      }

      .cls-2 {
        font-size: 2.96px;
      }

      .cls-2, .cls-3, .cls-4, .cls-5, .cls-6, .cls-7, .cls-8 {
        fill: #231f20;
      }

      .cls-9 {
        letter-spacing: -.02em;
      }

      .cls-10 {
        letter-spacing: .02em;
      }

      .cls-11 {
        stroke: #6d6e71;
        stroke-width: .12px;
      }

      .cls-11, .cls-12 {
        fill: none;
        stroke-miterlimit: 10;
      }

      .cls-13, .cls-3, .cls-4, .cls-5, .cls-6, .cls-7 {
        font-family: CommitMonocommit-ibo-Regular, CommitMonocommit-ibo;
      }

      .cls-3 {
        font-size: 4.12px;
      }

      .cls-4 {
        font-size: 8.83px;
      }

      .cls-5 {
        font-size: 3.24px;
      }

      .cls-6 {
        font-size: 2.94px;
      }

      .cls-14 {
        font-family: CommitMonocommit-ibo-Bold, CommitMonocommit-ibo;
        font-weight: 700;
      }

      .cls-12 {
        stroke: #000;
      }

      .cls-15 {
        letter-spacing: .02em;
      }

      .cls-7 {
        font-size: 5.89px;
      }

      .cls-8 {
        stroke-width: 0px;
      }
    </style>
  </defs>
  <g id="Layer_2" data-name="Layer 2">
    <g>
      <line class="cls-11" x1="164.41" y1="202.75" x2="164.41" y2="9.66"/>
      <line class="cls-11" x1="146.96" y1="202.75" x2="146.96" y2="9.66"/>
      <line class="cls-11" x1="129.34" y1="202.75" x2="129.34" y2="9.66"/>
      <line class="cls-11" x1="111.71" y1="202.75" x2="111.71" y2="9.66"/>
      <line class="cls-11" x1="94.09" y1="202.75" x2="94.09" y2="9.66"/>
      <line class="cls-11" x1="76.46" y1="202.75" x2="76.46" y2="9.66"/>
      <line class="cls-11" x1="58.84" y1="202.75" x2="58.84" y2="9.66"/>
      <line class="cls-11" x1="41.21" y1="202.75" x2="41.21" y2="9.66"/>
      <line class="cls-11" x1="23.59" y1="202.75" x2="23.59" y2="9.66"/>
    </g>
  </g>
  <g id="Layer_1" data-name="Layer 1">
    <text class="cls-5" transform="translate(76.37 95.8) rotate(-180) scale(1 -1)"><tspan x="0" y="0">Guest Teacher </tspan><tspan x="0" y="3.88">Creative Coding Utrecht</tspan></text>
    <text class="cls-5" transform="translate(146.87 172.21) rotate(-180) scale(1 -1)"><tspan x="0" y="0">Werkplaats Typografie</tspan></text>
    <text class="cls-5" transform="translate(76.27 88.28) rotate(-180) scale(1 -1)"><tspan x="0" y="0">BattleBits Workshop</tspan></text>
    <text class="cls-5" transform="translate(76.37 76.36) rotate(-180) scale(1 -1)"><tspan x="0" y="0">Tutor Interactive Media ArtEZ</tspan><tspan x="0" y="3.88">Graphic Design Arnhem</tspan></text>
    <g>
      <path class="cls-8" d="M57.82,63.84h-.57c0,.5.24.85.58.85.37,0,.61-.39.61-.98s-.27-.99-.67-.99c-.25,0-.46.15-.51.37h-.19c.06-.32.35-.55.71-.55.51,0,.87.48.87,1.17s-.33,1.15-.79,1.15c-.27,0-.48-.17-.6-.43h-.01v.4h-.19v-1.18h.76v.18Z"/>
      <path class="cls-8" d="M55.22,64.26v-1.17h.19v1c0,.36.2.61.48.61.23,0,.38-.17.38-.45v-1.17h.19v1.18c0,.36-.22.6-.54.6-.23,0-.4-.11-.5-.31h-.01c0,.09-.01.18-.02.28h-.18c.01-.2.02-.42.02-.58Z"/>
      <path class="cls-8" d="M54.46,63.99h-1.23v-.08c0-.5.29-.84.7-.84s.72.37.72.89-.32.92-.76.92c-.31,0-.56-.18-.63-.45h.18c.06.17.23.28.43.28.34,0,.57-.29.58-.71ZM53.93,63.24c-.28,0-.49.24-.5.59h1.03c-.04-.36-.25-.59-.53-.59Z"/>
      <path class="cls-8" d="M52.64,64.42c-.02.27-.3.47-.65.47s-.62-.22-.62-.54c0-.26.17-.41.56-.47h.07c.26-.06.38-.14.38-.31,0-.2-.16-.33-.39-.33-.21,0-.39.12-.42.28h-.18c.02-.26.29-.45.61-.45s.57.21.57.52c0,.26-.17.4-.55.47h-.07c-.28.06-.38.15-.38.31,0,.21.17.35.43.35.24,0,.44-.13.46-.29h.19Z"/>
      <path class="cls-8" d="M50.12,64.28v-1.02h-.63v-.17h.63v-.55l.19.03v.52h.52v.17h-.52v1.02c0,.39-.18.59-.53.59-.13,0-.24-.03-.32-.08v-.16c.1.05.2.08.3.08.24,0,.36-.14.36-.43Z"/>
      <path class="cls-8" d="M46.48,64.84h-.2v-2.08h-.71v-.18h1.62v.18h-.71v2.08Z"/>
      <path class="cls-8" d="M44.93,63.99h-1.23v-.08c0-.5.29-.84.7-.84s.72.37.72.89-.32.92-.76.92c-.31,0-.56-.18-.63-.45h.18c.06.17.23.28.43.28.34,0,.57-.29.58-.71ZM44.4,63.24c-.28,0-.49.24-.5.59h1.03c-.04-.36-.25-.59-.53-.59Z"/>
      <path class="cls-8" d="M42.05,64.51h-.01c0,.11-.01.22-.03.33h-.18c.01-.2.02-.42.02-.58v-1.17h.18v.35h.02c.11-.24.3-.38.55-.38.41,0,.71.38.71.91s-.3.91-.71.91c-.24,0-.43-.13-.55-.36ZM42.04,63.97c0,.44.21.73.52.73s.55-.31.55-.73-.23-.73-.55-.73-.52.29-.52.73Z"/>
      <path class="cls-8" d="M40.08,64.42c.05.17.23.29.44.29.35,0,.58-.3.58-.74s-.23-.74-.58-.74c-.21,0-.38.11-.43.29h-.18c.05-.27.3-.45.61-.45.45,0,.77.38.77.91s-.33.91-.78.91c-.31,0-.58-.18-.63-.45h.18Z"/>
      <path class="cls-8" d="M39.3,64.84h-.19v-1c0-.35-.2-.61-.48-.61-.23,0-.38.18-.38.45v1.16h-.19v-1.18c0-.36.22-.6.54-.6.22,0,.4.12.5.31h.01v-.92h.19v2.39Z"/>
      <path class="cls-8" d="M37.27,63.99h-1.23v-.08c0-.5.29-.84.7-.84s.72.37.72.89-.32.92-.76.92c-.31,0-.56-.18-.63-.45h.18c.06.17.23.28.43.28.34,0,.57-.29.58-.71ZM36.73,63.24c-.28,0-.49.24-.5.59h1.03c-.04-.36-.25-.59-.53-.59Z"/>
      <path class="cls-8" d="M35.15,64.84v-1c0-.35-.19-.59-.47-.59-.18,0-.31.1-.34.27h-.19c.03-.27.23-.44.5-.44.23,0,.41.13.51.33h.01v-.31h.18v1.75h-.19Z"/>
      <path class="cls-8" d="M58.49,68.73h-.81c-.37,0-.63-.26-.63-.61,0-.28.16-.49.41-.57h0c-.2-.1-.33-.28-.33-.52,0-.33.25-.57.61-.57h.76v2.26ZM58.29,68.55v-.9h-.62c-.25,0-.41.18-.41.45s.17.45.41.45h.62ZM58.29,67.46v-.82h-.58c-.23,0-.38.16-.38.4s.16.42.38.42h.58Z"/>
      <path class="cls-8" d="M55.34,68.4h-.01c0,.11-.01.22-.03.33h-.18c.01-.2.02-.42.02-.58v-1.17h.18v.35h.02c.11-.24.3-.38.55-.38.41,0,.71.38.71.91s-.3.91-.71.91c-.24,0-.43-.13-.55-.36ZM55.32,67.86c0,.44.21.73.52.73s.55-.31.55-.73-.23-.73-.55-.73-.52.29-.52.73Z"/>
      <path class="cls-8" d="M54.55,68.31c-.02.27-.3.47-.65.47s-.62-.22-.62-.54c0-.26.17-.41.56-.47h.07c.26-.06.38-.14.38-.31,0-.2-.16-.33-.39-.33-.21,0-.39.12-.42.28h-.18c.02-.26.29-.45.61-.45s.57.21.57.52c0,.26-.17.4-.55.47h-.07c-.28.06-.38.15-.38.31,0,.21.17.35.43.35.24,0,.44-.13.46-.29h.19Z"/>
      <path class="cls-8" d="M52.1,66.54h-.34v-.34h.34v.34ZM51.8,66.98h.81v.17h-.61v1.58h-.19v-1.75Z"/>
      <path class="cls-8" d="M50.77,68.31c-.02.27-.3.47-.65.47-.37,0-.62-.22-.62-.54,0-.26.17-.41.56-.47h.07c.27-.06.38-.14.38-.31,0-.2-.16-.33-.39-.33-.21,0-.39.12-.42.28h-.18c.02-.26.29-.45.61-.45s.57.21.57.52c0,.26-.17.4-.55.47h-.07c-.28.06-.38.15-.38.31,0,.21.17.35.43.35.24,0,.44-.13.46-.29h.19Z"/>
      <path class="cls-8" d="M46.5,68.73h-.25l-.58-1.75h.19l.5,1.54h.01l.51-1.54h.2l-.6,1.75Z"/>
      <path class="cls-8" d="M44.42,68.76c-.43,0-.75-.38-.75-.91s.31-.91.75-.91.75.38.75.91-.31.91-.75.91ZM44.42,68.59c.32,0,.55-.3.55-.73s-.23-.73-.55-.73-.55.3-.55.73.23.73.55.73Z"/>
      <path class="cls-8" d="M42.47,68.76c-.43,0-.75-.38-.75-.91s.31-.91.75-.91.75.38.75.91-.31.91-.75.91ZM42.47,68.59c.32,0,.55-.3.55-.73s-.23-.73-.55-.73-.55.3-.55.73.23.73.55.73Z"/>
      <path class="cls-8" d="M40.87,68.73v-1c0-.35-.19-.59-.47-.59-.18,0-.31.1-.34.27h-.19c.03-.27.23-.44.5-.44.23,0,.41.13.51.33h.01v-.31h.18v1.75h-.19Z"/>
      <path class="cls-8" d="M37.5,68.73l-.22-.69h-.89l-.22.69h-.21l.74-2.26h.26l.74,2.26h-.2ZM37.22,67.86l-.38-1.17h-.01l-.38,1.17h.77Z"/>
      <path class="cls-8" d="M34.32,68.31c.05.17.23.29.44.29.35,0,.58-.3.58-.74s-.23-.74-.58-.74c-.21,0-.38.11-.43.29h-.18c.05-.27.3-.45.61-.45.45,0,.77.38.77.91s-.33.91-.78.91c-.31,0-.58-.18-.63-.45h.18Z"/>
      <path class="cls-8" d="M32.99,68.17v-1.02h-.63v-.17h.63v-.55l.19.03v.52h.52v.17h-.52v1.02c0,.39-.18.59-.53.59-.13,0-.24-.03-.32-.08v-.16c.1.05.2.08.3.08.24,0,.36-.14.36-.43Z"/>
      <path class="cls-8" d="M30.51,68.15v-1.17h.19v1c0,.36.2.61.48.61.23,0,.38-.17.38-.45v-1.17h.19v1.18c0,.36-.22.6-.54.6-.23,0-.41-.11-.5-.31h-.01c0,.09-.01.18-.02.28h-.18c.01-.2.02-.42.02-.58Z"/>
      <path class="cls-8" d="M29.64,67.87h-1.23v-.08c0-.5.29-.84.7-.84s.72.37.72.89-.32.92-.76.92c-.31,0-.56-.18-.63-.45h.18c.06.17.23.28.43.28.34,0,.57-.29.58-.71ZM29.11,67.12c-.28,0-.49.24-.5.59h1.03c-.04-.36-.25-.59-.53-.59Z"/>
      <path class="cls-8" d="M27.29,68.17v-1.83h.73v.17h-.53v1.67c0,.39-.18.59-.53.59-.13,0-.24-.03-.32-.08v-.16c.1.05.2.08.3.08.24,0,.36-.14.36-.43Z"/>
      <path class="cls-8" d="M25.87,67.87h-1.23v-.08c0-.5.29-.84.7-.84s.72.37.72.89-.32.92-.76.92c-.31,0-.56-.18-.63-.45h.18c.06.17.23.28.43.28.34,0,.57-.29.58-.71ZM25.33,67.12c-.28,0-.49.24-.5.59h1.03c-.04-.36-.25-.59-.53-.59Z"/>
      <path class="cls-8" d="M22.11,66.46h.2v2.26h-.2v-.74l-.38-.42-.83,1.16h-.24l.93-1.3-.88-.96h.25l1.15,1.25v-1.25Z"/>
      <path class="cls-8" d="M19,68.15v-1.17h.19v1c0,.36.2.61.48.61.23,0,.38-.17.38-.45v-1.17h.19v1.18c0,.36-.22.6-.54.6-.23,0-.4-.11-.5-.31h-.01c0,.09-.01.18-.02.28h-.18c.01-.2.02-.42.02-.58Z"/>
      <path class="cls-8" d="M18.32,68.73h-.19v-1c0-.36-.2-.61-.48-.61-.23,0-.38.17-.38.45v1.16h-.19v-1.18c0-.36.22-.6.54-.6.23,0,.41.12.51.32h0v-.29h.18v1.75Z"/>
      <path class="cls-8" d="M16.41,68.31c-.02.27-.3.47-.65.47s-.62-.22-.62-.54c0-.26.17-.41.56-.47h.07c.26-.06.38-.14.38-.31,0-.2-.16-.33-.39-.33-.21,0-.39.12-.42.28h-.18c.02-.26.29-.45.61-.45s.57.21.57.52c0,.26-.17.4-.55.47h-.07c-.28.06-.38.15-.38.31,0,.21.17.35.43.35.24,0,.44-.13.46-.29h.19Z"/>
      <path class="cls-8" d="M13.89,68.17v-1.02h-.63v-.17h.63v-.55l.19.03v.52h.52v.17h-.52v1.02c0,.39-.18.59-.53.59-.13,0-.24-.03-.32-.08v-.16c.1.05.2.08.3.08.24,0,.36-.14.36-.43Z"/>
    </g>
    <rect class="cls-8" x="58.38" y="65.69" width=".88" height="70.46" transform="translate(-42.1 159.74) rotate(-90)"/>
    <rect class="cls-8" x="58.38" y="54.38" width=".88" height="70.46" transform="translate(-30.79 148.43) rotate(-90)"/>
    <rect class="cls-8" x="58.38" y="46.59" width=".88" height="70.46" transform="translate(-23 140.64) rotate(-90)"/>
    <rect class="cls-8" x="40.77" y="52.74" width=".88" height="35.25" transform="translate(-29.15 111.57) rotate(-90)"/>
    <text class="cls-5" transform="translate(111.72 182.83) rotate(-180) scale(1 -1)"><tspan x="0" y="0">Sjef van Beers</tspan></text>
    <text class="cls-5" transform="translate(146.97 182.53) rotate(-180) scale(1 -1)"><tspan x="0" y="0">W139</tspan></text>
    <text class="cls-5" transform="translate(76.46 172.8) rotate(-180) scale(1 -1)"><tspan x="0" y="0">Tapp.online</tspan></text>
    <text class="cls-5" transform="translate(58.84 160.34) rotate(-180) scale(1 -1)"><tspan x="0" y="0">Innovation:Lab / </tspan><tspan x="0" y="3.88">Toneelmakerij</tspan></text>
    <rect class="cls-8" x="111.27" y="104.84" width=".88" height="35.25" transform="translate(-10.76 234.18) rotate(-90)"/>
    <rect class="cls-8" x="155.25" y="121.08" width=".87" height="17.44" transform="translate(25.89 285.48) rotate(-90)"/>
    <rect class="cls-8" x="137.71" y="164.43" width=".88" height="17.63" transform="translate(-35.09 311.39) rotate(-90)"/>
    <rect class="cls-8" x="137.76" y="174.7" width=".88" height="17.72" transform="translate(-45.36 321.76) rotate(-90)"/>
    <rect class="cls-8" x="49.59" y="156.95" width=".88" height="17.63" transform="translate(-115.74 215.79) rotate(-90)"/>
    <rect class="cls-8" x="76.02" y="136.33" width=".88" height="35.25" transform="translate(-77.5 230.42) rotate(-90)"/>
    <rect class="cls-8" x="67.21" y="137.76" width=".88" height="17.63" transform="translate(-78.92 214.22) rotate(-90)"/>
    <rect class="cls-8" x="84.83" y="111.86" width=".88" height="52.88" transform="translate(-53.03 223.58) rotate(-90)"/>
    <rect class="cls-8" x="102.46" y="121.57" width=".88" height="17.63" transform="translate(-27.48 233.29) rotate(-90)"/>
    <rect class="cls-8" x="58.4" y="156.2" width=".88" height="35.25" transform="translate(-114.99 232.67) rotate(-90)"/>
    <rect class="cls-8" x="67.21" y="139.8" width=".88" height="88.13" transform="translate(-116.21 251.52) rotate(-90)"/>
    <rect class="cls-8" x="31.96" y="129.49" width=".88" height="17.63" transform="translate(-105.9 170.7) rotate(-90)"/>
    <text class="cls-5" transform="translate(41.19 137.32) rotate(-180) scale(1 -1)"><tspan x="0" y="0">Platform DIS</tspan></text>
    <text class="cls-5" transform="translate(111.62 129.06) rotate(-180) scale(1 -1)"><tspan x="0" y="0">Het Grote Straatberaad</tspan></text>
    <text class="cls-5" transform="translate(129.34 121.13) rotate(-180) scale(1 -1)"><tspan x="0" y="0">Clever°Franke</tspan></text>
    <text class="cls-5" transform="translate(164.41 128.46) rotate(-180) scale(1 -1)"><tspan x="0" y="0">TodaysArt Festival</tspan></text>
    <text class="cls-5" transform="translate(76.46 145.54) rotate(-180) scale(1 -1)"><tspan x="0" y="0">Go Short - Filmfestival</tspan></text>
    <text class="cls-5" transform="translate(94.09 152.93) rotate(-180) scale(1 -1)"><tspan x="0" y="0">Heesterveld Creative Community</tspan></text>
    <text class="cls-5" transform="translate(111.71 137.32) rotate(-180) scale(1 -1)"><tspan x="0" y="0">Het Nieuwe Instituut</tspan></text>
    <text class="cls-6" transform="translate(148.07 113.72) rotate(-180) scale(1 -1)"><tspan x="0" y="0">-------</tspan><tspan class="cls-9" x="12.15" y="0">-</tspan><tspan x="13.83" y="0" xml:space="preserve"> Creative Development || Front-end Development -------</tspan><tspan class="cls-1" x="107.59" y="0">-</tspan></text>
    <text class="cls-6" transform="translate(116.56 57.73) rotate(-180) scale(1 -1)"><tspan x="0" y="0">-------</tspan><tspan class="cls-9" x="12.15" y="0">-</tspan><tspan x="13.83" y="0" xml:space="preserve"> Teaching -------</tspan><tspan class="cls-1" x="43.35" y="0">-</tspan></text>
    <text class="cls-4" transform="translate(174.06 33) rotate(-180) scale(1 -1)"><tspan x="0" y="0">Ibo Ibelings</tspan></text>
    <text class="cls-7" transform="translate(174.06 40.45) rotate(-180) scale(1 -1)"><tspan x="0" y="0">Creative Developer &amp;</tspan><tspan x="0" y="7.06">Tutor</tspan></text>
    <text class="cls-6" transform="translate(58.84 28) rotate(-180) scale(1 -1)"><tspan x="0" y="0">Arnhem</tspan><tspan x="0" y="3.53">06-37549872</tspan><tspan x="0" y="7.06">contact@iboibelings.nl</tspan><tspan x="0" y="10.59">iboibelings.nl</tspan></text>
    <text class="cls-2" transform="translate(171.93 214.53) rotate(-180) scale(1 -1)"><tspan class="cls-14"><tspan x="0" y="0">Education</tspan></tspan><tspan class="cls-13"><tspan x="0" y="3.53">Bachelor of Arts (BA),</tspan></tspan><tspan class="cls-13"><tspan class="cls-10" x="0" y="7.06">Intereactio</tspan><tspan x="19.99" y="7.06">n </tspan><tspan class="cls-10" x="23.49" y="7.06">Design</tspan><tspan x="34.39" y="7.06">, </tspan><tspan class="cls-10" x="37.89" y="7.06">ArtE</tspan><tspan x="45.16" y="7.06">Z </tspan></tspan><tspan class="cls-13"><tspan class="cls-10" x="0" y="10.59">Universit</tspan><tspan x="16.36" y="10.59">y </tspan><tspan class="cls-10" x="19.85" y="10.59">o</tspan><tspan x="21.67" y="10.59">f </tspan><tspan class="cls-10" x="25.17" y="10.59">th</tspan><tspan x="28.8" y="10.59">e </tspan><tspan class="cls-10" x="32.29" y="10.59">Arts</tspan><tspan x="39.56" y="10.59">,</tspan></tspan><tspan class="cls-13"><tspan x="0" y="14.13">Arnhem</tspan></tspan><tspan class="cls-13"><tspan class="cls-10" x="0" y="21.19">HAVO</tspan><tspan x="7.27" y="21.19">, </tspan><tspan class="cls-10" x="10.77" y="21.19">C&amp;M</tspan><tspan x="16.22" y="21.19">, </tspan><tspan class="cls-10" x="19.71" y="21.19">Oosterlich</tspan><tspan x="37.89" y="21.19">t </tspan></tspan><tspan class="cls-13"><tspan class="cls-10" x="0" y="24.72">College</tspan><tspan x="12.72" y="24.72">,</tspan></tspan><tspan class="cls-13"><tspan x="0" y="28.25">Nieuwegein</tspan></tspan></text>
    <text class="cls-2" transform="translate(114.02 214.53) rotate(-180) scale(1 -1)"><tspan class="cls-14"><tspan x="0" y="0">Interships</tspan></tspan><tspan class="cls-13"><tspan class="cls-10" x="0" y="3.53">Graduatio</tspan><tspan x="16.36" y="3.53">n </tspan><tspan class="cls-10" x="19.85" y="3.53">internshi</tspan><tspan x="36.21" y="3.53">p </tspan></tspan><tspan class="cls-13"><tspan class="cls-10" x="0" y="7.06">NX</tspan><tspan x="3.63" y="7.06">P </tspan><tspan class="cls-15" x="7.13" y="7.06">Semiconductors</tspan><tspan x="32.58" y="7.06">, </tspan></tspan><tspan class="cls-13"><tspan class="cls-10" x="0" y="10.59">Nijmege</tspan><tspan x="12.72" y="10.59">n </tspan></tspan><tspan class="cls-13"><tspan class="cls-10" x="0" y="17.66">S</tspan><tspan x="1.82" y="17.66">o </tspan><tspan class="cls-10" x="5.31" y="17.66">Kanno</tspan><tspan x="14.4" y="17.66">, </tspan><tspan class="cls-10" x="17.9" y="17.66">Berlin</tspan><tspan x="28.8" y="17.66">, </tspan></tspan><tspan class="cls-13"><tspan class="cls-10" x="0" y="21.19">German</tspan><tspan x="10.9" y="21.19">y </tspan></tspan></text>
    <text class="cls-2" transform="translate(65.39 214.53) rotate(-180) scale(1 -1)"><tspan class="cls-14"><tspan x="0" y="0">Other work experiences</tspan></tspan><tspan class="cls-13"><tspan x="0" y="3.53">Livechat employee, </tspan></tspan><tspan class="cls-13"><tspan x="0" y="7.06">DHL Parcel, Arnhem </tspan></tspan><tspan class="cls-13"><tspan class="cls-15" x="0" y="14.13">Volunteer</tspan><tspan x="16.36" y="14.13">, </tspan><tspan class="cls-15" x="19.86" y="14.13">Willemeen</tspan><tspan x="36.22" y="14.13">, </tspan></tspan><tspan class="cls-13"><tspan class="cls-15" x="0" y="17.66">Arnhe</tspan><tspan x="9.09" y="17.66" xml:space="preserve">m  </tspan></tspan><tspan class="cls-13"><tspan x="0" y="24.72">Volunteer &amp; Founder, </tspan></tspan><tspan class="cls-13"><tspan x="0" y="28.25">The Pit, Nieuwegein</tspan></tspan></text>
    <g>
      <text class="cls-3" transform="translate(169.59 206.95) rotate(-134.95) scale(1 -1) skewX(-.1)"><tspan x="0" y="0">2017</tspan></text>
      <text class="cls-3" transform="translate(151.96 206.95) rotate(-134.95) scale(1 -1) skewX(-.1)"><tspan x="0" y="0">2018</tspan></text>
      <text class="cls-3" transform="translate(134.34 206.95) rotate(-134.95) scale(1 -1) skewX(-.1)"><tspan x="0" y="0">2019</tspan></text>
      <text class="cls-3" transform="translate(116.72 206.95) rotate(-134.95) scale(1 -1) skewX(-.1)"><tspan x="0" y="0">2020</tspan></text>
      <text class="cls-3" transform="translate(99.09 206.95) rotate(-134.95) scale(1 -1) skewX(-.1)"><tspan x="0" y="0">2021</tspan></text>
      <text class="cls-3" transform="translate(81.47 206.95) rotate(-134.95) scale(1 -1) skewX(-.1)"><tspan x="0" y="0">2022</tspan></text>
      <text class="cls-3" transform="translate(63.85 206.95) rotate(-134.95) scale(1 -1) skewX(-.1)"><tspan x="0" y="0">2023</tspan></text>
      <text class="cls-3" transform="translate(46.22 206.95) rotate(-134.95) scale(1 -1) skewX(-.1)"><tspan x="0" y="0">2024</tspan></text>
      <text class="cls-3" transform="translate(28.6 206.95) rotate(-134.95) scale(1 -1) skewX(-.1)"><tspan x="0" y="0">2025</tspan></text>
    </g>
    <line class="cls-12" x1="180.59" y1="202.75" x2="171.93" y2="202.75"/>
    <line class="cls-12" x1="161.91" y1="202.75" x2="153.25" y2="202.75"/>
    <line class="cls-12" x1="144.33" y1="202.75" x2="135.68" y2="202.75"/>
    <line class="cls-12" x1="126.76" y1="202.75" x2="118.1" y2="202.75"/>
    <line class="cls-12" x1="109.19" y1="202.75" x2="100.53" y2="202.75"/>
    <line class="cls-12" x1="91.62" y1="202.75" x2="82.96" y2="202.75"/>
    <line class="cls-12" x1="74.04" y1="202.75" x2="65.39" y2="202.75"/>
    <line class="cls-12" x1="56.47" y1="202.75" x2="47.81" y2="202.75"/>
    <line class="cls-12" x1="38.9" y1="202.75" x2="30.24" y2="202.75"/>
    <line class="cls-12" x1="21.33" y1="202.75" x2="12.67" y2="202.75"/>
    <g>
      <path class="cls-8" d="M171.47,254.79h-.37v-1.75h-.58v-.33h1.54v.33h-.59v1.75Z"/>
      <path class="cls-8" d="M169.88,254.09h-1.02v-.13c0-.47.28-.79.67-.79s.7.34.7.82-.3.84-.73.84c-.31,0-.56-.19-.61-.47h.34c.04.1.14.16.28.16.21,0,.35-.16.38-.42ZM169.53,253.46c-.17,0-.3.14-.32.35h.66c-.04-.22-.17-.35-.34-.35Z"/>
      <path class="cls-8" d="M167.47,254.35c.03.09.13.15.26.15.25,0,.4-.2.4-.52s-.15-.49-.38-.49c-.13,0-.23.06-.26.15h-.36c.04-.28.3-.47.62-.47.43,0,.73.34.73.82s-.31.84-.74.84c-.31,0-.57-.19-.63-.47h.36Z"/>
      <path class="cls-8" d="M166.65,254.79h-.36v-.93c0-.23-.13-.4-.3-.4-.14,0-.23.11-.23.28v1.05h-.36v-1.08c0-.33.19-.55.48-.55.18,0,.31.08.4.22h.01v-.79h.36v2.19Z"/>
      <path class="cls-8" d="M164.91,254.79h-.35v-.93c0-.23-.13-.4-.31-.4-.14,0-.23.11-.23.28v1.05h-.36v-1.08c0-.33.19-.55.48-.55.18,0,.33.09.41.24h.01v-.21h.34v1.6Z"/>
      <path class="cls-8" d="M162.68,252.95h-.47v-.47h.47v.47ZM162.24,253.19h.86v.33h-.5v1.27h-.35v-1.6Z"/>
      <path class="cls-8" d="M160.48,254.35c.03.09.13.15.26.15.25,0,.4-.2.4-.52s-.15-.49-.38-.49c-.13,0-.23.06-.26.15h-.36c.04-.28.3-.47.62-.47.43,0,.73.34.73.82s-.31.84-.74.84c-.31,0-.57-.19-.63-.47h.36Z"/>
      <path class="cls-8" d="M158.75,254.53h-.02c0,.09-.01.17-.02.26h-.34c.01-.19.02-.38.02-.53v-1.07h.34v.27h.01c.09-.19.24-.3.44-.3.37,0,.64.36.64.83s-.27.83-.64.83c-.2,0-.35-.1-.44-.29ZM158.74,253.99c0,.29.16.5.37.5s.37-.22.37-.5-.16-.5-.37-.5-.37.22-.37.5Z"/>
      <path class="cls-8" d="M157.19,254.22v-1.62h.81v.33h-.46v1.29c0,.39-.2.6-.58.6-.12,0-.24-.02-.33-.06v-.3c.09.04.17.06.26.06.2,0,.29-.1.29-.3Z"/>
      <path class="cls-8" d="M154.54,254.23c-.01.35-.32.6-.74.6s-.7-.26-.7-.64c0-.33.21-.54.63-.61l.12-.02c.2-.04.29-.12.29-.26,0-.17-.13-.28-.33-.28-.19,0-.33.1-.35.24h-.34c.01-.33.31-.56.71-.56s.68.25.68.63c0,.32-.2.52-.6.59l-.12.02c-.22.04-.32.13-.32.28,0,.18.14.3.35.3s.36-.12.38-.28h.34Z"/>
      <path class="cls-8" d="M152.72,254.79h-.36v-.43l-.23-.26-.44.69h-.41l.62-.95-.57-.65h.44l.6.69v-1.28h.36v2.19Z"/>
      <path class="cls-8" d="M150.44,252.95h-.47v-.47h.47v.47ZM150,253.19h.86v.33h-.5v1.27h-.35v-1.6Z"/>
      <path class="cls-8" d="M148.45,254.22v-1.62h.81v.33h-.46v1.29c0,.39-.2.6-.58.6-.12,0-.24-.02-.33-.06v-.3c.09.04.17.06.26.06.2,0,.29-.1.29-.3Z"/>
      <path class="cls-8" d="M146.71,254.22v-1.62h.81v.33h-.46v1.29c0,.39-.2.6-.58.6-.12,0-.24-.02-.33-.06v-.3c.09.04.17.06.26.06.2,0,.29-.1.29-.3Z"/>
      <path class="cls-8" d="M145.71,254.35c0,.28-.27.49-.63.49s-.63-.22-.63-.54c0-.27.18-.42.57-.46h.08c.15-.03.21-.08.21-.18,0-.12-.09-.19-.25-.19s-.26.07-.27.18h-.33c.01-.27.27-.47.61-.47.35,0,.59.22.59.53,0,.27-.17.42-.54.46h-.08c-.17.03-.24.08-.24.18,0,.12.1.2.25.2s.29-.08.31-.19h.34Z"/>
      <path class="cls-8" d="M171.97,258.32h-.18v-.99h-.99v.99h-.18v-2.07h.18v.92h.99v-.92h.18v2.07Z"/>
      <path class="cls-8" d="M169.64,258.32h-.18v-1.91h-.65v-.17h1.48v.17h-.65v1.91Z"/>
      <path class="cls-8" d="M168.36,256.47h-.01l-.46,1.38h-.17l-.46-1.38h-.01v1.85h-.18v-2.07h.28l.46,1.36h.01l.46-1.36h.28v2.07h-.18v-1.85Z"/>
      <path class="cls-8" d="M166.55,258.32h-1.19v-.17h1.01v-1.91h.18v2.07Z"/>
      <path class="cls-8" d="M165.01,258.82h-.18l-1.24-2.84h.18l1.24,2.84Z"/>
      <path class="cls-8" d="M162,257.82c.05.22.24.37.48.37.36,0,.59-.35.59-.89s-.23-.91-.59-.91c-.23,0-.41.14-.45.34h-.17c.05-.29.31-.5.63-.5.46,0,.78.43.78,1.07s-.32,1.07-.78,1.07c-.33,0-.6-.22-.65-.53h.17Z"/>
      <path class="cls-8" d="M161.48,257.82c-.01.31-.3.54-.68.54s-.67-.25-.67-.59c0-.3.21-.49.6-.58l.12-.03c.26-.06.39-.18.39-.39,0-.23-.17-.39-.43-.39-.25,0-.44.14-.47.34h-.18c.02-.29.3-.5.65-.5s.61.23.61.56c0,.29-.19.48-.54.55l-.12.03c-.29.07-.44.2-.44.41,0,.25.2.42.5.42.28,0,.48-.16.5-.38h.17Z"/>
      <path class="cls-8" d="M159.74,257.82c-.01.31-.3.54-.68.54s-.68-.25-.68-.59c0-.3.21-.49.6-.58l.12-.03c.26-.06.39-.18.39-.39,0-.23-.17-.39-.43-.39-.25,0-.44.14-.47.34h-.17c.02-.29.3-.5.65-.5s.61.23.61.56c0,.29-.19.48-.54.55l-.12.03c-.29.07-.44.2-.44.41,0,.25.2.42.5.42.27,0,.48-.16.5-.38h.17Z"/>
      <path class="cls-8" d="M158.02,258.82h-.18l-1.24-2.84h.18l1.24,2.84Z"/>
      <path class="cls-8" d="M156.26,257.82c0,.31-.28.53-.63.53s-.63-.24-.63-.56v-1.54h1.04v.17h-.85v1.37c0,.24.18.4.45.4s.44-.15.46-.37h.17Z"/>
      <path class="cls-8" d="M153.39,258.02h-.01c0,.1-.01.2-.02.3h-.17c.01-.19.02-.38.02-.53v-1.07h.16v.32h.01c.1-.22.28-.35.51-.35.38,0,.65.35.65.83s-.28.83-.65.83c-.22,0-.4-.12-.5-.33ZM153.38,257.52c0,.4.2.67.48.67s.5-.28.5-.67-.21-.67-.51-.67-.48.27-.48.67Z"/>
      <path class="cls-8" d="M152.17,258.32h-.23l-.53-1.6h.18l.45,1.41h.01l.47-1.41h.18l-.54,1.6Z"/>
      <path class="cls-8" d="M149.9,258.02h-.01c0,.1-.01.2-.02.3h-.17c.01-.19.02-.38.02-.53v-1.07h.16v.32h.02c.1-.22.28-.35.51-.35.38,0,.65.35.65.83s-.28.83-.65.83c-.22,0-.4-.12-.5-.33ZM149.89,257.52c0,.4.2.67.48.67s.5-.28.5-.67-.21-.67-.51-.67-.48.27-.48.67Z"/>
      <path class="cls-8" d="M149.15,257.94c-.02.24-.27.43-.59.43-.33,0-.57-.2-.57-.49,0-.24.16-.37.51-.43h.07c.24-.05.34-.13.34-.28,0-.18-.14-.31-.36-.31-.2,0-.35.11-.38.26h-.17c.02-.24.26-.41.56-.41s.52.2.52.47c0,.24-.16.37-.51.43h-.07c-.25.06-.35.13-.35.28,0,.19.16.32.39.32.22,0,.4-.12.42-.27h.17Z"/>
      <path class="cls-8" d="M146.34,257.94c.05.16.21.26.41.26.32,0,.53-.28.53-.67s-.21-.68-.53-.68c-.19,0-.34.1-.39.26h-.17c.04-.25.28-.41.56-.41.41,0,.7.35.7.83s-.3.83-.71.83c-.29,0-.53-.17-.57-.41h.17Z"/>
      <path class="cls-8" d="M145.36,258.32v-.92c0-.32-.17-.54-.43-.54-.16,0-.28.09-.31.25h-.18c.03-.25.21-.41.46-.41.21,0,.38.12.46.3h.01v-.28h.16v1.6h-.18Z"/>
      <path class="cls-8" d="M143.38,256.32h-.31v-.31h.31v.31ZM143.1,256.72h.74v.15h-.56v1.44h-.18v-1.6Z"/>
      <path class="cls-8" d="M142.19,256.72v2.19h-.18v-.88h-.02c-.1.2-.27.32-.49.32-.38,0-.65-.35-.65-.83s.27-.83.65-.83c.23,0,.41.13.51.35h.01v-.32h.16ZM141.52,256.85c-.29,0-.49.27-.49.67s.2.67.49.67.5-.28.5-.67-.21-.67-.5-.67Z"/>
      <path class="cls-8" d="M139.85,257.81v-.93h-.58v-.15h.58v-.5l.18.03v.47h.47v.15h-.47v.93c0,.35-.17.54-.49.54-.12,0-.22-.02-.3-.07v-.15c.09.05.18.07.28.07.22,0,.33-.13.33-.39Z"/>
      <path class="cls-8" d="M138.8,258.82h-.18l-1.24-2.84h.18l1.24,2.84Z"/>
      <path class="cls-8" d="M136.43,258.32h-.18v-1.91h-.65v-.17h1.48v.17h-.65v1.91Z"/>
      <path class="cls-8" d="M135.27,258.74v.15c-.08.02-.14.03-.2.03-.24,0-.4-.14-.51-.45l-.65-1.76h.18l.49,1.37h.01l.49-1.37h.19l-.59,1.6.04.1c.09.25.2.35.38.35.06,0,.11,0,.17-.03Z"/>
      <path class="cls-8" d="M133.45,256.72v2.19h-.18v-.88h-.02c-.1.2-.27.32-.49.32-.38,0-.65-.35-.65-.83s.27-.83.65-.83c.23,0,.41.13.51.35h.01v-.32h.16ZM132.78,256.85c-.29,0-.48.27-.48.67s.2.67.48.67.5-.28.5-.67-.21-.67-.5-.67Z"/>
      <path class="cls-8" d="M131.57,257.54h-1.12v-.07c0-.46.26-.77.64-.77s.66.34.66.82-.29.84-.7.84c-.28,0-.51-.17-.57-.41h.17c.06.16.21.25.4.25.31,0,.52-.26.53-.65ZM131.08,256.85c-.26,0-.45.22-.46.54h.94c-.04-.33-.22-.54-.48-.54Z"/>
      <path class="cls-8" d="M129.93,257.94c-.02.24-.27.43-.59.43-.33,0-.57-.2-.57-.49,0-.24.16-.37.51-.43h.07c.24-.05.34-.13.34-.28,0-.18-.14-.31-.36-.31-.2,0-.36.11-.38.26h-.17c.02-.24.26-.41.56-.41s.52.2.52.47c0,.24-.16.37-.51.43h-.07c-.25.06-.35.13-.35.28,0,.19.16.32.39.32.22,0,.4-.12.42-.27h.18Z"/>
      <path class="cls-8" d="M127.12,257.94c.05.16.21.26.41.26.32,0,.53-.28.53-.67s-.21-.68-.53-.68c-.19,0-.34.1-.39.26h-.17c.04-.25.28-.41.56-.41.41,0,.7.35.7.83s-.3.83-.71.83c-.29,0-.53-.17-.57-.41h.17Z"/>
      <path class="cls-8" d="M126.14,258.32v-.92c0-.32-.17-.54-.43-.54-.16,0-.28.09-.31.25h-.18c.03-.25.21-.41.46-.41.21,0,.38.12.46.3h.01v-.28h.16v1.6h-.18Z"/>
      <path class="cls-8" d="M124.16,256.32h-.31v-.31h.31v.31ZM123.88,256.72h.74v.15h-.56v1.44h-.18v-1.6Z"/>
      <path class="cls-8" d="M122.97,256.72v2.19h-.18v-.88h-.01c-.1.2-.27.32-.49.32-.38,0-.65-.35-.65-.83s.27-.83.65-.83c.23,0,.41.13.51.35h.01v-.32h.16ZM122.3,256.85c-.29,0-.49.27-.49.67s.2.67.49.67.5-.28.5-.67-.2-.67-.5-.67Z"/>
      <path class="cls-8" d="M120.63,257.81v-.93h-.58v-.15h.58v-.5l.18.03v.47h.47v.15h-.47v.93c0,.35-.17.54-.49.54-.12,0-.21-.02-.29-.07v-.15c.09.05.18.07.28.07.22,0,.33-.13.33-.39Z"/>
      <path class="cls-8" d="M117.68,257.48h-1.12v-.16h1.12v.16Z"/>
      <path class="cls-8" d="M114.21,258.32h-.18v-.93h-.58c-.33,0-.57-.24-.57-.57s.23-.57.57-.57h.77v2.07ZM114.03,257.22v-.81h-.6c-.22,0-.37.16-.37.41s.15.41.37.41h.6Z"/>
      <path class="cls-8" d="M112.15,258.32v-.92c0-.32-.17-.54-.43-.54-.16,0-.28.09-.31.25h-.18c.03-.25.21-.41.46-.41.21,0,.38.12.46.3h.01v-.28h.16v1.6h-.18Z"/>
      <path class="cls-8" d="M110.13,258.35c-.4,0-.68-.35-.68-.83s.29-.83.68-.83.68.35.68.83-.29.83-.68.83ZM110.13,258.19c.3,0,.5-.28.5-.67s-.21-.67-.5-.67-.5.28-.5.67.21.67.5.67Z"/>
      <path class="cls-8" d="M107.9,257.94c.05.16.21.26.41.26.32,0,.53-.28.53-.67s-.21-.68-.53-.68c-.19,0-.34.1-.39.26h-.17c.04-.25.28-.41.56-.41.41,0,.71.35.71.83s-.3.83-.71.83c-.29,0-.53-.17-.57-.41h.17Z"/>
      <path class="cls-8" d="M107.1,257.54h-1.12v-.07c0-.46.26-.77.64-.77s.66.34.66.82-.29.84-.7.84c-.28,0-.51-.17-.58-.41h.17c.06.16.21.25.4.25.31,0,.52-.26.53-.65ZM106.61,256.85c-.26,0-.45.22-.46.54h.95c-.04-.33-.22-.54-.48-.54Z"/>
      <path class="cls-8" d="M105.46,257.94c-.02.24-.27.43-.59.43s-.57-.2-.57-.49c0-.24.16-.37.51-.43h.07c.24-.05.34-.13.34-.28,0-.18-.15-.31-.36-.31-.2,0-.35.11-.38.26h-.17c.02-.24.26-.41.56-.41s.52.2.52.47c0,.24-.16.37-.51.43h-.07c-.25.06-.35.13-.35.28,0,.19.16.32.39.32.22,0,.4-.12.42-.27h.17Z"/>
      <path class="cls-8" d="M103.72,257.94c-.02.24-.27.43-.59.43s-.57-.2-.57-.49c0-.24.16-.37.51-.43h.07c.24-.05.34-.13.34-.28,0-.18-.15-.31-.36-.31-.2,0-.36.11-.38.26h-.17c.02-.24.26-.41.56-.41s.52.2.52.47c0,.24-.16.37-.51.43h-.07c-.25.06-.35.13-.35.28,0,.19.16.32.39.32.22,0,.4-.12.42-.27h.17Z"/>
      <path class="cls-8" d="M101.44,256.32h-.31v-.31h.31v.31ZM101.16,256.72h.74v.15h-.56v1.44h-.18v-1.6Z"/>
      <path class="cls-8" d="M100.19,258.32h-.18v-.92c0-.33-.18-.56-.43-.56-.21,0-.35.16-.35.41v1.07h-.18v-1.08c0-.33.2-.55.5-.55.21,0,.38.11.47.3h0v-.27h.16v1.6Z"/>
      <path class="cls-8" d="M97.49,257.97v.4c0,.24.18.42.43.42.22,0,.39-.13.42-.32h.18c-.02.28-.28.48-.59.48-.35,0-.61-.25-.61-.58v-1.65h.16v.29h.01c.1-.2.26-.32.47-.32.35,0,.61.34.61.78s-.27.78-.62.78c-.2,0-.35-.11-.45-.29h0ZM97.94,258.1c.26,0,.45-.27.45-.63s-.19-.63-.45-.63-.45.27-.45.63.19.63.45.63Z"/>
      <path class="cls-8" d="M96.86,258.82h-.18l-1.24-2.84h.18l1.24,2.84Z"/>
      <path class="cls-8" d="M94.99,258.32h-.18v-.93h-.58c-.33,0-.57-.24-.57-.57s.23-.57.57-.57h.77v2.07ZM94.81,257.22v-.81h-.6c-.22,0-.37.16-.37.41s.15.41.37.41h.6Z"/>
      <path class="cls-8" d="M93.13,257.82h.17c-.04.31-.3.53-.65.53-.39,0-.67-.28-.67-.66s.27-.66.63-.66c.16,0,.3.06.41.16h.01s-.08-.77-.08-.77h-.87v-.16h1.02l.12,1.13-.15.02c-.08-.14-.23-.22-.41-.22-.29,0-.5.22-.5.51s.21.5.49.5c.24,0,.44-.15.46-.37Z"/>
      <path class="cls-8" d="M91.07,258.32h-.33v-.33h.33v.33Z"/>
      <path class="cls-8" d="M89.16,256.32h-.31v-.31h.31v.31ZM88.89,258.4v-1.68h.77v.15h-.59v1.52c0,.27.11.39.33.39.09,0,.19-.02.28-.07v.15c-.08.05-.18.07-.3.07-.32,0-.49-.19-.49-.54Z"/>
      <path class="cls-8" d="M87.99,257.94c-.02.24-.27.43-.59.43-.33,0-.57-.2-.57-.49,0-.24.16-.37.51-.43h.07c.24-.05.34-.13.34-.28,0-.18-.14-.31-.35-.31-.2,0-.36.11-.38.26h-.17c.02-.24.26-.41.56-.41s.52.2.52.47c0,.24-.16.37-.51.43h-.07c-.25.06-.35.13-.35.28,0,.19.16.32.39.32.22,0,.4-.12.42-.27h.17Z"/>
      <path class="cls-8" d="M84.47,257.48h-1.12v-.16h1.12v.16Z"/>
      <path class="cls-8" d="M80.54,258.32h-.24l-.68-2.07h.19l.6,1.86h.01l.6-1.86h.19l-.68,2.07Z"/>
      <path class="cls-8" d="M78.12,257.79v-1.07h.18v.92c0,.33.18.56.43.56.21,0,.35-.16.35-.41v-1.07h.18v1.08c0,.33-.2.55-.5.55-.21,0-.37-.1-.46-.28h-.01c0,.08-.01.17-.02.25h-.17c.01-.19.02-.38.02-.53Z"/>
      <path class="cls-8" d="M77.39,257.54h-1.12v-.07c0-.46.26-.77.64-.77s.66.34.66.82-.29.84-.7.84c-.28,0-.51-.17-.57-.41h.17c.06.16.21.25.4.25.31,0,.52-.26.53-.65ZM76.9,256.85c-.26,0-.45.22-.46.54h.94c-.04-.33-.23-.54-.48-.54Z"/>
      <path class="cls-8" d="M75.87,257.82c0,.31-.28.53-.63.53s-.63-.24-.63-.56v-1.54h1.04v.17h-.85v1.37c0,.24.18.4.45.4s.44-.15.46-.37h.17Z"/>
      <path class="cls-8" d="M74.1,257.82c-.01.31-.3.54-.68.54s-.67-.25-.67-.59c0-.3.2-.49.6-.58l.12-.03c.26-.06.39-.18.39-.39,0-.23-.17-.39-.43-.39-.25,0-.44.14-.47.34h-.17c.02-.29.3-.5.65-.5s.61.23.61.56c0,.29-.19.48-.54.55l-.12.03c-.29.07-.44.2-.44.41,0,.25.2.42.5.42.28,0,.48-.16.5-.38h.17Z"/>
      <path class="cls-8" d="M70.49,257.48h-1.12v-.16h1.12v.16Z"/>
      <path class="cls-8" d="M67.07,258.32h-.58c-.49,0-.83-.42-.83-1.04s.34-1.04.83-1.04h.58v2.07ZM66.88,258.15v-1.74h-.39c-.39,0-.64.34-.64.87s.25.87.64.87h.39Z"/>
      <path class="cls-8" d="M64.68,258.35c-.4,0-.68-.35-.68-.83s.29-.83.68-.83.68.35.68.83-.29.83-.68.83ZM64.68,258.19c.3,0,.5-.28.5-.67s-.21-.67-.5-.67-.5.28-.5.67.21.67.5.67Z"/>
      <path class="cls-8" d="M62.45,257.94c.05.16.21.26.41.26.32,0,.53-.28.53-.67s-.21-.68-.53-.68c-.19,0-.34.1-.39.26h-.17c.04-.25.28-.41.56-.41.41,0,.7.35.7.83s-.3.83-.71.83c-.29,0-.53-.17-.57-.41h.17Z"/>
      <path class="cls-8" d="M61.76,258.32h-.18v-.48l-.32-.33-.58.82h-.22l.68-.95-.62-.65h.24l.83.88v-1.47h.18v2.19Z"/>
      <path class="cls-8" d="M59.91,257.54h-1.12v-.07c0-.46.26-.77.64-.77s.66.34.66.82-.29.84-.7.84c-.28,0-.51-.17-.57-.41h.17c.06.16.21.25.4.25.31,0,.52-.26.53-.65ZM59.42,256.85c-.26,0-.45.22-.46.54h.94c-.04-.33-.23-.54-.48-.54Z"/>
      <path class="cls-8" d="M57.97,258.32v-.92c0-.32-.17-.54-.43-.54-.16,0-.28.09-.31.25h-.18c.03-.25.21-.41.46-.41.21,0,.38.12.46.3h.01v-.28h.16v1.6h-.18Z"/>
      <path class="cls-8" d="M54.76,257.48h-1.12v-.16h1.12v.16Z"/>
      <path class="cls-8" d="M50.18,258.06h.01l.94-1.81h.26v2.07h-.17v-1.87h-.01l-.97,1.87h-.23v-2.07h.17v1.81Z"/>
      <path class="cls-8" d="M48.95,258.35c-.4,0-.68-.35-.68-.83s.29-.83.68-.83.68.35.68.83-.29.83-.68.83ZM48.95,258.19c.3,0,.5-.28.5-.67s-.21-.67-.5-.67-.5.28-.5.67.21.67.5.67Z"/>
      <path class="cls-8" d="M46.74,258.32h-.17c.01-.19.02-.38.02-.53v-1.66h.18v.88h.01c.1-.2.27-.32.49-.32.38,0,.65.35.65.83s-.27.83-.65.83c-.22,0-.4-.12-.5-.33h-.01c0,.1-.01.2-.02.3ZM47.25,258.19c.29,0,.5-.28.5-.67s-.21-.67-.51-.67-.48.27-.48.67.19.67.48.67Z"/>
      <path class="cls-8" d="M45.92,257.54h-1.12v-.07c0-.46.26-.77.64-.77s.66.34.66.82-.29.84-.7.84c-.28,0-.51-.17-.57-.41h.17c.06.16.21.25.4.25.31,0,.52-.26.53-.65ZM45.44,256.85c-.26,0-.45.22-.46.54h.94c-.04-.33-.23-.54-.48-.54Z"/>
      <path class="cls-8" d="M44.4,257.82c0,.31-.28.53-.63.53s-.63-.24-.63-.56v-1.54h1.04v.17h-.85v1.37c0,.24.18.4.45.4s.44-.15.46-.37h.17Z"/>
      <path class="cls-8" d="M42.64,257.82c-.01.31-.3.54-.68.54s-.67-.25-.67-.59c0-.3.2-.49.6-.58l.12-.03c.26-.06.39-.18.39-.39,0-.23-.17-.39-.43-.39-.25,0-.44.14-.47.34h-.17c.02-.29.3-.5.65-.5s.61.23.61.56c0,.29-.19.48-.54.55l-.12.03c-.29.07-.44.2-.44.41,0,.25.2.42.5.42.28,0,.48-.16.5-.38h.17Z"/>
      <path class="cls-8" d="M39.02,257.48h-1.12v-.16h1.12v.16Z"/>
      <path class="cls-8" d="M35.06,258.32h-.18v-1.91h-.65v-.17h1.48v.17h-.65v1.91Z"/>
      <path class="cls-8" d="M33.77,258.32h-.18v-.92c0-.32-.18-.56-.44-.56-.21,0-.35.16-.35.41v1.07h-.18v-1.08c0-.33.2-.55.49-.55.2,0,.36.11.46.28h.01v-.84h.18v2.19Z"/>
      <path class="cls-8" d="M31.75,258.32v-.92c0-.32-.17-.54-.43-.54-.16,0-.28.09-.31.25h-.18c.03-.25.21-.41.46-.41.21,0,.38.12.46.3h.01v-.28h.16v1.6h-.18Z"/>
      <path class="cls-8" d="M30.19,257.54h-1.12v-.07c0-.46.26-.77.64-.77s.66.34.66.82-.29.84-.7.84c-.28,0-.51-.17-.57-.41h.17c.06.16.21.25.4.25.31,0,.52-.26.53-.65ZM29.7,256.85c-.26,0-.45.22-.46.54h.94c-.04-.33-.23-.54-.48-.54Z"/>
      <path class="cls-8" d="M28.44,257.54h-1.12v-.07c0-.46.26-.77.64-.77s.66.34.66.82-.29.84-.7.84c-.28,0-.51-.17-.57-.41h.17c.06.16.21.25.4.25.31,0,.52-.26.53-.65ZM27.96,256.85c-.26,0-.45.22-.46.54h.94c-.04-.33-.23-.54-.48-.54Z"/>
      <path class="cls-8" d="M26.92,257.82c0,.31-.28.53-.63.53s-.63-.24-.63-.56v-1.54h1.04v.17h-.85v1.37c0,.24.18.4.45.4s.44-.15.46-.37h.17Z"/>
      <path class="cls-8" d="M25.15,257.82c-.01.31-.3.54-.68.54s-.67-.25-.67-.59c0-.3.2-.49.6-.58l.12-.03c.26-.06.39-.18.39-.39,0-.23-.17-.39-.43-.39-.25,0-.44.14-.47.34h-.17c.02-.29.3-.5.65-.5s.61.23.61.56c0,.29-.19.48-.54.55l-.12.03c-.29.07-.44.2-.44.41,0,.25.2.42.5.42.28,0,.48-.16.5-.38h.17Z"/>
    </g>
  </g>
</svg>