<?xml version="1.0" encoding="UTF-8"?>
<svg id="Layer_2" data-name="Layer 2" xmlns="http://www.w3.org/2000/svg" width="172.49" height="251.05" viewBox="0 0 172.49 251.05">
  <defs>
    <style>
      .cls-1 {
        letter-spacing: -.02em;
      }

      .cls-2 {
        font-size: 2.96px;
      }

      .cls-2, .cls-3, .cls-4, .cls-5, .cls-6, .cls-7, .cls-8 {
        fill: #231f20;
      }

      .cls-9 {
        letter-spacing: -.02em;
      }

      .cls-10 {
        letter-spacing: .02em;
      }

      .cls-11 {
        stroke: #6d6e71;
        stroke-width: .12px;
      }

      .cls-11, .cls-12 {
        fill: none;
        stroke-miterlimit: 10;
      }

      .cls-13, .cls-3, .cls-4, .cls-5, .cls-6, .cls-7 {
        font-family: CommitMonocommit-ibo-Regular, CommitMonocommit-ibo;
      }

      .cls-3 {
        font-size: 4.12px;
      }

      .cls-4 {
        font-size: 8.83px;
      }

      .cls-5 {
        font-size: 3.24px;
      }

      .cls-6 {
        font-size: 2.94px;
      }

      .cls-14 {
        font-family: CommitMonocommit-ibo-Bold, CommitMonocommit-ibo;
        font-weight: 700;
      }

      .cls-12 {
        stroke: #000;
      }

      .cls-15 {
        letter-spacing: .02em;
      }

      .cls-7 {
        font-size: 5.89px;
      }

      .cls-8 {
        stroke-width: 0px;
      }
    </style>
  </defs>
  <g id="Layer_2-2" data-name="Layer 2">
    <g>
      <line class="cls-11" x1="156.31" y1="193.1" x2="156.31" y2="0"/>
      <line class="cls-11" x1="138.87" y1="193.1" x2="138.87" y2="0"/>
      <line class="cls-11" x1="121.24" y1="193.1" x2="121.24" y2="0"/>
      <line class="cls-11" x1="103.62" y1="193.1" x2="103.62" y2="0"/>
      <line class="cls-11" x1="85.99" y1="193.1" x2="85.99" y2="0"/>
      <line class="cls-11" x1="68.37" y1="193.1" x2="68.37" y2="0"/>
      <line class="cls-11" x1="50.74" y1="193.1" x2="50.74" y2="0"/>
      <line class="cls-11" x1="33.12" y1="193.1" x2="33.12" y2="0"/>
      <line class="cls-11" x1="15.49" y1="193.1" x2="15.49" y2="0"/>
    </g>
  </g>
  <g id="Layer_1-2" data-name="Layer 1">
    <text class="cls-5" transform="translate(68.27 86.15) rotate(-180) scale(1 -1)"><tspan x="0" y="0">Guest Teacher </tspan><tspan x="0" y="3.88">Creative Coding Utrecht</tspan></text>
    <text class="cls-5" transform="translate(138.77 162.55) rotate(-180) scale(1 -1)"><tspan x="0" y="0">Werkplaats Typografie</tspan></text>
    <text class="cls-5" transform="translate(68.17 78.63) rotate(-180) scale(1 -1)"><tspan x="0" y="0">BattleBits Workshop</tspan></text>
    <text class="cls-5" transform="translate(68.27 66.7) rotate(-180) scale(1 -1)"><tspan x="0" y="0">Tutor Interactive Media ArtEZ</tspan><tspan x="0" y="3.88">Graphic Design Arnhem</tspan></text>
    <g>
      <path class="cls-8" d="M49.72,54.19h-.57c0,.5.24.85.58.85.37,0,.61-.39.61-.98s-.27-.99-.67-.99c-.25,0-.46.15-.51.37h-.19c.06-.32.35-.55.71-.55.51,0,.87.48.87,1.17s-.33,1.15-.79,1.15c-.27,0-.48-.17-.6-.43h-.01v.4h-.19v-1.18h.76v.18Z"/>
      <path class="cls-8" d="M47.12,54.61v-1.17h.19v1c0,.36.2.61.48.61.23,0,.38-.17.38-.45v-1.17h.19v1.18c0,.36-.22.6-.54.6-.23,0-.4-.11-.5-.31h-.01c0,.09-.01.18-.02.28h-.18c.01-.2.02-.42.02-.58Z"/>
      <path class="cls-8" d="M46.37,54.33h-1.23v-.08c0-.5.29-.84.7-.84s.72.37.72.89-.32.92-.76.92c-.31,0-.56-.18-.63-.45h.18c.06.17.23.28.43.28.34,0,.57-.29.58-.71ZM45.83,53.58c-.28,0-.49.24-.5.59h1.03c-.04-.36-.25-.59-.53-.59Z"/>
      <path class="cls-8" d="M44.54,54.77c-.02.27-.3.47-.65.47s-.62-.22-.62-.54c0-.26.17-.41.56-.47h.07c.26-.06.38-.14.38-.31,0-.2-.16-.33-.39-.33-.21,0-.39.12-.42.28h-.18c.02-.26.29-.45.61-.45s.57.21.57.52c0,.26-.17.4-.55.47h-.07c-.28.06-.38.15-.38.31,0,.21.17.35.43.35.24,0,.44-.13.46-.29h.19Z"/>
      <path class="cls-8" d="M42.02,54.63v-1.02h-.63v-.17h.63v-.55l.19.03v.52h.52v.17h-.52v1.02c0,.39-.18.59-.53.59-.13,0-.24-.03-.32-.08v-.16c.1.05.2.08.3.08.24,0,.36-.14.36-.43Z"/>
      <path class="cls-8" d="M38.38,55.19h-.2v-2.08h-.71v-.18h1.62v.18h-.71v2.08Z"/>
      <path class="cls-8" d="M36.83,54.33h-1.23v-.08c0-.5.29-.84.7-.84s.72.37.72.89-.32.92-.76.92c-.31,0-.56-.18-.63-.45h.18c.06.17.23.28.43.28.34,0,.57-.29.58-.71ZM36.3,53.58c-.28,0-.49.24-.5.59h1.03c-.04-.36-.25-.59-.53-.59Z"/>
      <path class="cls-8" d="M33.95,54.86h-.01c0,.11-.01.22-.03.33h-.18c.01-.2.02-.42.02-.58v-1.17h.18v.35h.02c.11-.24.3-.38.55-.38.41,0,.71.38.71.91s-.3.91-.71.91c-.24,0-.43-.13-.55-.36ZM33.94,54.32c0,.44.21.73.52.73s.55-.31.55-.73-.23-.73-.55-.73-.52.29-.52.73Z"/>
      <path class="cls-8" d="M31.98,54.77c.05.17.23.29.44.29.35,0,.58-.3.58-.74s-.23-.74-.58-.74c-.21,0-.38.11-.43.29h-.18c.05-.27.3-.45.61-.45.45,0,.77.38.77.91s-.33.91-.78.91c-.31,0-.58-.18-.63-.45h.18Z"/>
      <path class="cls-8" d="M31.2,55.19h-.19v-1c0-.35-.2-.61-.48-.61-.23,0-.38.18-.38.45v1.16h-.19v-1.18c0-.36.22-.6.54-.6.22,0,.4.12.5.31h.01v-.92h.19v2.39Z"/>
      <path class="cls-8" d="M29.17,54.33h-1.23v-.08c0-.5.29-.84.7-.84s.72.37.72.89-.32.92-.76.92c-.31,0-.56-.18-.63-.45h.18c.06.17.23.28.43.28.34,0,.57-.29.58-.71ZM28.63,53.58c-.28,0-.49.24-.5.59h1.03c-.04-.36-.25-.59-.53-.59Z"/>
      <path class="cls-8" d="M27.05,55.19v-1c0-.35-.19-.59-.47-.59-.18,0-.31.1-.34.27h-.19c.03-.27.23-.44.5-.44.23,0,.41.13.51.33h.01v-.31h.18v1.75h-.19Z"/>
      <path class="cls-8" d="M50.39,59.07h-.81c-.37,0-.63-.26-.63-.61,0-.28.16-.49.41-.57h0c-.2-.1-.33-.28-.33-.52,0-.33.25-.57.61-.57h.76v2.26ZM50.19,58.89v-.9h-.62c-.25,0-.41.18-.41.45s.17.45.41.45h.62ZM50.19,57.81v-.82h-.58c-.23,0-.38.16-.38.4s.16.42.38.42h.58Z"/>
      <path class="cls-8" d="M47.24,58.74h-.01c0,.11-.01.22-.03.33h-.18c.01-.2.02-.42.02-.58v-1.17h.18v.35h.02c.11-.24.3-.38.55-.38.41,0,.71.38.71.91s-.3.91-.71.91c-.24,0-.43-.13-.55-.36ZM47.22,58.2c0,.44.21.73.52.73s.55-.31.55-.73-.23-.73-.55-.73-.52.29-.52.73Z"/>
      <path class="cls-8" d="M46.45,58.65c-.02.27-.3.47-.65.47s-.62-.22-.62-.54c0-.26.17-.41.56-.47h.07c.26-.06.38-.14.38-.31,0-.2-.16-.33-.39-.33-.21,0-.39.12-.42.28h-.18c.02-.26.29-.45.61-.45s.57.21.57.52c0,.26-.17.4-.55.47h-.07c-.28.06-.38.15-.38.31,0,.21.17.35.43.35.24,0,.44-.13.46-.29h.19Z"/>
      <path class="cls-8" d="M44,56.89h-.34v-.34h.34v.34ZM43.7,57.33h.81v.17h-.61v1.58h-.19v-1.75Z"/>
      <path class="cls-8" d="M42.67,58.65c-.02.27-.3.47-.65.47-.37,0-.62-.22-.62-.54,0-.26.17-.41.56-.47h.07c.27-.06.38-.14.38-.31,0-.2-.16-.33-.39-.33-.21,0-.39.12-.42.28h-.18c.02-.26.29-.45.61-.45s.57.21.57.52c0,.26-.17.4-.55.47h-.07c-.28.06-.38.15-.38.31,0,.21.17.35.43.35.24,0,.44-.13.46-.29h.19Z"/>
      <path class="cls-8" d="M38.4,59.07h-.25l-.58-1.75h.19l.5,1.54h.01l.51-1.54h.2l-.6,1.75Z"/>
      <path class="cls-8" d="M36.32,59.11c-.43,0-.75-.38-.75-.91s.31-.91.75-.91.75.38.75.91-.31.91-.75.91ZM36.32,58.93c.32,0,.55-.3.55-.73s-.23-.73-.55-.73-.55.3-.55.73.23.73.55.73Z"/>
      <path class="cls-8" d="M34.37,59.11c-.43,0-.75-.38-.75-.91s.31-.91.75-.91.75.38.75.91-.31.91-.75.91ZM34.37,58.93c.32,0,.55-.3.55-.73s-.23-.73-.55-.73-.55.3-.55.73.23.73.55.73Z"/>
      <path class="cls-8" d="M32.77,59.07v-1c0-.35-.19-.59-.47-.59-.18,0-.31.1-.34.27h-.19c.03-.27.23-.44.5-.44.23,0,.41.13.51.33h.01v-.31h.18v1.75h-.19Z"/>
      <path class="cls-8" d="M29.4,59.07l-.22-.69h-.89l-.22.69h-.21l.74-2.26h.26l.74,2.26h-.2ZM29.12,58.21l-.38-1.17h-.01l-.38,1.17h.77Z"/>
      <path class="cls-8" d="M26.22,58.65c.05.17.23.29.44.29.35,0,.58-.3.58-.74s-.23-.74-.58-.74c-.21,0-.38.11-.43.29h-.18c.05-.27.3-.45.61-.45.45,0,.77.38.77.91s-.33.91-.78.91c-.31,0-.58-.18-.63-.45h.18Z"/>
      <path class="cls-8" d="M24.9,58.51v-1.02h-.63v-.17h.63v-.55l.19.03v.52h.52v.17h-.52v1.02c0,.39-.18.59-.53.59-.13,0-.24-.03-.32-.08v-.16c.1.05.2.08.3.08.24,0,.36-.14.36-.43Z"/>
      <path class="cls-8" d="M22.41,58.49v-1.17h.19v1c0,.36.2.61.48.61.23,0,.38-.17.38-.45v-1.17h.19v1.18c0,.36-.22.6-.54.6-.23,0-.41-.11-.5-.31h-.01c0,.09-.01.18-.02.28h-.18c.01-.2.02-.42.02-.58Z"/>
      <path class="cls-8" d="M21.54,58.22h-1.23v-.08c0-.5.29-.84.7-.84s.72.37.72.89-.32.92-.76.92c-.31,0-.56-.18-.63-.45h.18c.06.17.23.28.43.28.34,0,.57-.29.58-.71ZM21.01,57.47c-.28,0-.49.24-.5.59h1.03c-.04-.36-.25-.59-.53-.59Z"/>
      <path class="cls-8" d="M19.19,58.51v-1.83h.73v.17h-.53v1.67c0,.39-.18.59-.53.59-.13,0-.24-.03-.32-.08v-.16c.1.05.2.08.3.08.24,0,.36-.14.36-.43Z"/>
      <path class="cls-8" d="M17.77,58.22h-1.23v-.08c0-.5.29-.84.7-.84s.72.37.72.89-.32.92-.76.92c-.31,0-.56-.18-.63-.45h.18c.06.17.23.28.43.28.34,0,.57-.29.58-.71ZM17.23,57.47c-.28,0-.49.24-.5.59h1.03c-.04-.36-.25-.59-.53-.59Z"/>
      <path class="cls-8" d="M14.01,56.81h.2v2.26h-.2v-.74l-.38-.42-.83,1.16h-.24l.93-1.3-.88-.96h.25l1.15,1.25v-1.25Z"/>
      <path class="cls-8" d="M10.9,58.49v-1.17h.19v1c0,.36.2.61.48.61.23,0,.38-.17.38-.45v-1.17h.19v1.18c0,.36-.22.6-.54.6-.23,0-.4-.11-.5-.31h-.01c0,.09-.01.18-.02.28h-.18c.01-.2.02-.42.02-.58Z"/>
      <path class="cls-8" d="M10.23,59.07h-.19v-1c0-.36-.2-.61-.48-.61-.23,0-.38.17-.38.45v1.16h-.19v-1.18c0-.36.22-.6.54-.6.23,0,.41.12.51.32h0v-.29h.18v1.75Z"/>
      <path class="cls-8" d="M8.32,58.65c-.02.27-.3.47-.65.47s-.62-.22-.62-.54c0-.26.17-.41.56-.47h.07c.26-.06.38-.14.38-.31,0-.2-.16-.33-.39-.33-.21,0-.39.12-.42.28h-.18c.02-.26.29-.45.61-.45s.57.21.57.52c0,.26-.17.4-.55.47h-.07c-.28.06-.38.15-.38.31,0,.21.17.35.43.35.24,0,.44-.13.46-.29h.19Z"/>
      <path class="cls-8" d="M5.79,58.51v-1.02h-.63v-.17h.63v-.55l.19.03v.52h.52v.17h-.52v1.02c0,.39-.18.59-.53.59-.13,0-.24-.03-.32-.08v-.16c.1.05.2.08.3.08.24,0,.36-.14.36-.43Z"/>
    </g>
    <rect class="cls-8" x="50.28" y="56.04" width=".88" height="70.46" transform="translate(-40.55 141.99) rotate(-90)"/>
    <rect class="cls-8" x="50.28" y="44.72" width=".88" height="70.46" transform="translate(-29.23 130.67) rotate(-90)"/>
    <rect class="cls-8" x="50.28" y="36.94" width=".88" height="70.46" transform="translate(-21.45 122.89) rotate(-90)"/>
    <rect class="cls-8" x="32.67" y="43.08" width=".88" height="35.25" transform="translate(-27.59 93.82) rotate(-90)"/>
    <text class="cls-5" transform="translate(103.62 173.18) rotate(-180) scale(1 -1)"><tspan x="0" y="0">Sjef van Beers</tspan></text>
    <text class="cls-5" transform="translate(138.87 172.87) rotate(-180) scale(1 -1)"><tspan x="0" y="0">W139</tspan></text>
    <text class="cls-5" transform="translate(68.37 163.14) rotate(-180) scale(1 -1)"><tspan x="0" y="0">Tapp.online</tspan></text>
    <text class="cls-5" transform="translate(50.74 150.68) rotate(-180) scale(1 -1)"><tspan x="0" y="0">Innovation:Lab / </tspan><tspan x="0" y="3.88">Toneelmakerij</tspan></text>
    <rect class="cls-8" x="103.17" y="95.19" width=".88" height="35.25" transform="translate(-9.2 216.43) rotate(-90)"/>
    <rect class="cls-8" x="147.15" y="111.42" width=".87" height="17.44" transform="translate(27.44 267.73) rotate(-90)"/>
    <rect class="cls-8" x="129.61" y="154.77" width=".88" height="17.63" transform="translate(-33.53 293.64) rotate(-90)"/>
    <rect class="cls-8" x="129.66" y="165.04" width=".88" height="17.72" transform="translate(-43.8 304.01) rotate(-90)"/>
    <rect class="cls-8" x="41.49" y="147.29" width=".88" height="17.63" transform="translate(-114.18 198.04) rotate(-90)"/>
    <rect class="cls-8" x="67.92" y="126.68" width=".88" height="35.25" transform="translate(-75.94 212.67) rotate(-90)"/>
    <rect class="cls-8" x="59.11" y="128.1" width=".88" height="17.63" transform="translate(-77.36 196.47) rotate(-90)"/>
    <rect class="cls-8" x="76.74" y="102.21" width=".88" height="52.88" transform="translate(-51.47 205.82) rotate(-90)"/>
    <rect class="cls-8" x="94.36" y="111.92" width=".88" height="17.63" transform="translate(-25.93 215.53) rotate(-90)"/>
    <rect class="cls-8" x="50.3" y="146.55" width=".88" height="35.25" transform="translate(-113.43 214.91) rotate(-90)"/>
    <rect class="cls-8" x="59.11" y="130.15" width=".88" height="88.13" transform="translate(-114.66 233.76) rotate(-90)"/>
    <rect class="cls-8" x="23.86" y="119.83" width=".88" height="17.63" transform="translate(-104.34 152.95) rotate(-90)"/>
    <text class="cls-5" transform="translate(33.09 127.66) rotate(-180) scale(1 -1)"><tspan x="0" y="0">Platform DIS</tspan></text>
    <text class="cls-5" transform="translate(103.52 119.41) rotate(-180) scale(1 -1)"><tspan x="0" y="0">Het Grote Straatberaad</tspan></text>
    <text class="cls-5" transform="translate(121.24 111.47) rotate(-180) scale(1 -1)"><tspan x="0" y="0">Clever°Franke</tspan></text>
    <text class="cls-5" transform="translate(156.31 118.8) rotate(-180) scale(1 -1)"><tspan x="0" y="0">TodaysArt Festival</tspan></text>
    <text class="cls-5" transform="translate(68.37 135.89) rotate(-180) scale(1 -1)"><tspan x="0" y="0">Go Short - Filmfestival</tspan></text>
    <text class="cls-5" transform="translate(85.99 143.27) rotate(-180) scale(1 -1)"><tspan x="0" y="0">Heesterveld Creative Community</tspan></text>
    <text class="cls-5" transform="translate(103.62 127.66) rotate(-180) scale(1 -1)"><tspan x="0" y="0">Het Nieuwe Instituut</tspan></text>
    <text class="cls-6" transform="translate(139.98 104.06) rotate(-180) scale(1 -1)"><tspan x="0" y="0">-------</tspan><tspan class="cls-9" x="12.15" y="0">-</tspan><tspan x="13.83" y="0" xml:space="preserve"> Creative Development || Front-end Development -------</tspan><tspan class="cls-1" x="107.59" y="0">-</tspan></text>
    <text class="cls-6" transform="translate(108.46 48.07) rotate(-180) scale(1 -1)"><tspan x="0" y="0">-------</tspan><tspan class="cls-9" x="12.15" y="0">-</tspan><tspan x="13.83" y="0" xml:space="preserve"> Teaching -------</tspan><tspan class="cls-1" x="43.35" y="0">-</tspan></text>
    <text class="cls-4" transform="translate(165.96 23.35) rotate(-180) scale(1 -1)"><tspan x="0" y="0">Ibo Ibelings</tspan></text>
    <text class="cls-7" transform="translate(165.96 30.79) rotate(-180) scale(1 -1)"><tspan x="0" y="0">Creative Developer &amp;</tspan><tspan x="0" y="7.06">Tutor</tspan></text>
    <text class="cls-6" transform="translate(50.74 18.34) rotate(-180) scale(1 -1)"><tspan x="0" y="0">Arnhem</tspan><tspan x="0" y="3.53">06-37549872</tspan><tspan x="0" y="7.06">contact@iboibelings.nl</tspan><tspan x="0" y="10.59">iboibelings.nl</tspan></text>
    <text class="cls-2" transform="translate(163.83 204.87) rotate(-180) scale(1 -1)"><tspan class="cls-14"><tspan x="0" y="0">Education</tspan></tspan><tspan class="cls-13"><tspan x="0" y="3.53">Bachelor of Arts (BA),</tspan></tspan><tspan class="cls-13"><tspan class="cls-10" x="0" y="7.06">Intereactio</tspan><tspan x="19.99" y="7.06">n </tspan><tspan class="cls-10" x="23.49" y="7.06">Design</tspan><tspan x="34.39" y="7.06">, </tspan><tspan class="cls-10" x="37.89" y="7.06">ArtE</tspan><tspan x="45.16" y="7.06">Z </tspan></tspan><tspan class="cls-13"><tspan class="cls-10" x="0" y="10.59">Universit</tspan><tspan x="16.36" y="10.59">y </tspan><tspan class="cls-10" x="19.85" y="10.59">o</tspan><tspan x="21.67" y="10.59">f </tspan><tspan class="cls-10" x="25.17" y="10.59">th</tspan><tspan x="28.8" y="10.59">e </tspan><tspan class="cls-10" x="32.29" y="10.59">Arts</tspan><tspan x="39.56" y="10.59">,</tspan></tspan><tspan class="cls-13"><tspan x="0" y="14.13">Arnhem</tspan></tspan><tspan class="cls-13"><tspan class="cls-10" x="0" y="21.19">HAVO</tspan><tspan x="7.27" y="21.19">, </tspan><tspan class="cls-10" x="10.77" y="21.19">C&amp;M</tspan><tspan x="16.22" y="21.19">, </tspan><tspan class="cls-10" x="19.71" y="21.19">Oosterlich</tspan><tspan x="37.89" y="21.19">t </tspan></tspan><tspan class="cls-13"><tspan class="cls-10" x="0" y="24.72">College</tspan><tspan x="12.72" y="24.72">,</tspan></tspan><tspan class="cls-13"><tspan x="0" y="28.25">Nieuwegein</tspan></tspan></text>
    <text class="cls-2" transform="translate(105.92 204.87) rotate(-180) scale(1 -1)"><tspan class="cls-14"><tspan x="0" y="0">Interships</tspan></tspan><tspan class="cls-13"><tspan class="cls-10" x="0" y="3.53">Graduatio</tspan><tspan x="16.36" y="3.53">n </tspan><tspan class="cls-10" x="19.85" y="3.53">internshi</tspan><tspan x="36.21" y="3.53">p </tspan></tspan><tspan class="cls-13"><tspan class="cls-10" x="0" y="7.06">NX</tspan><tspan x="3.63" y="7.06">P </tspan><tspan class="cls-15" x="7.13" y="7.06">Semiconductors</tspan><tspan x="32.58" y="7.06">, </tspan></tspan><tspan class="cls-13"><tspan class="cls-10" x="0" y="10.59">Nijmege</tspan><tspan x="12.72" y="10.59">n </tspan></tspan><tspan class="cls-13"><tspan class="cls-10" x="0" y="17.66">S</tspan><tspan x="1.82" y="17.66">o </tspan><tspan class="cls-10" x="5.31" y="17.66">Kanno</tspan><tspan x="14.4" y="17.66">, </tspan><tspan class="cls-10" x="17.9" y="17.66">Berlin</tspan><tspan x="28.8" y="17.66">, </tspan></tspan><tspan class="cls-13"><tspan class="cls-10" x="0" y="21.19">German</tspan><tspan x="10.9" y="21.19">y </tspan></tspan></text>
    <text class="cls-2" transform="translate(57.29 204.87) rotate(-180) scale(1 -1)"><tspan class="cls-14"><tspan x="0" y="0">Other work experiences</tspan></tspan><tspan class="cls-13"><tspan x="0" y="3.53">Livechat employee, </tspan></tspan><tspan class="cls-13"><tspan x="0" y="7.06">DHL Parcel, Arnhem </tspan></tspan><tspan class="cls-13"><tspan class="cls-15" x="0" y="14.13">Volunteer</tspan><tspan x="16.36" y="14.13">, </tspan><tspan class="cls-15" x="19.86" y="14.13">Willemeen</tspan><tspan x="36.22" y="14.13">, </tspan></tspan><tspan class="cls-13"><tspan class="cls-15" x="0" y="17.66">Arnhe</tspan><tspan x="9.09" y="17.66" xml:space="preserve">m  </tspan></tspan><tspan class="cls-13"><tspan x="0" y="24.72">Volunteer &amp; Founder, </tspan></tspan><tspan class="cls-13"><tspan x="0" y="28.25">The Pit, Nieuwegein</tspan></tspan></text>
    <g>
      <text class="cls-3" transform="translate(161.49 197.29) rotate(-134.95) scale(1 -1) skewX(-.1)"><tspan x="0" y="0">2017</tspan></text>
      <text class="cls-3" transform="translate(143.87 197.29) rotate(-134.95) scale(1 -1) skewX(-.1)"><tspan x="0" y="0">2018</tspan></text>
      <text class="cls-3" transform="translate(126.24 197.29) rotate(-134.95) scale(1 -1) skewX(-.1)"><tspan x="0" y="0">2019</tspan></text>
      <text class="cls-3" transform="translate(108.62 197.29) rotate(-134.95) scale(1 -1) skewX(-.1)"><tspan x="0" y="0">2020</tspan></text>
      <text class="cls-3" transform="translate(90.99 197.3) rotate(-134.95) scale(1 -1) skewX(-.1)"><tspan x="0" y="0">2021</tspan></text>
      <text class="cls-3" transform="translate(73.37 197.3) rotate(-134.95) scale(1 -1) skewX(-.1)"><tspan x="0" y="0">2022</tspan></text>
      <text class="cls-3" transform="translate(55.75 197.3) rotate(-134.95) scale(1 -1) skewX(-.1)"><tspan x="0" y="0">2023</tspan></text>
      <text class="cls-3" transform="translate(38.12 197.3) rotate(-134.95) scale(1 -1) skewX(-.1)"><tspan x="0" y="0">2024</tspan></text>
      <text class="cls-3" transform="translate(20.5 197.3) rotate(-134.95) scale(1 -1) skewX(-.1)"><tspan x="0" y="0">2025</tspan></text>
    </g>
    <line class="cls-12" x1="172.49" y1="193.1" x2="163.83" y2="193.1"/>
    <line class="cls-12" x1="153.81" y1="193.1" x2="145.15" y2="193.1"/>
    <line class="cls-12" x1="136.24" y1="193.1" x2="127.58" y2="193.1"/>
    <line class="cls-12" x1="118.66" y1="193.1" x2="110" y2="193.1"/>
    <line class="cls-12" x1="101.09" y1="193.1" x2="92.43" y2="193.1"/>
    <line class="cls-12" x1="83.52" y1="193.1" x2="74.86" y2="193.1"/>
    <line class="cls-12" x1="65.95" y1="193.1" x2="57.29" y2="193.1"/>
    <line class="cls-12" x1="48.37" y1="193.1" x2="39.71" y2="193.1"/>
    <line class="cls-12" x1="30.8" y1="193.1" x2="22.14" y2="193.1"/>
    <line class="cls-12" x1="13.23" y1="193.1" x2="4.57" y2="193.1"/>
    <g>
      <path class="cls-8" d="M163.38,245.13h-.37v-1.75h-.58v-.33h1.54v.33h-.59v1.75Z"/>
      <path class="cls-8" d="M161.78,244.43h-1.02v-.13c0-.47.28-.79.67-.79s.7.34.7.82-.3.84-.73.84c-.31,0-.56-.19-.61-.47h.34c.04.1.14.16.28.16.21,0,.35-.16.38-.42ZM161.43,243.81c-.17,0-.3.14-.32.35h.66c-.04-.22-.17-.35-.34-.35Z"/>
      <path class="cls-8" d="M159.37,244.69c.03.09.13.15.26.15.25,0,.4-.2.4-.52s-.15-.49-.38-.49c-.13,0-.23.06-.26.15h-.36c.04-.28.3-.47.62-.47.43,0,.73.34.73.82s-.31.84-.74.84c-.31,0-.57-.19-.63-.47h.36Z"/>
      <path class="cls-8" d="M158.56,245.13h-.36v-.93c0-.23-.13-.4-.3-.4-.14,0-.23.11-.23.28v1.05h-.36v-1.08c0-.33.19-.55.48-.55.18,0,.31.08.4.22h.01v-.79h.36v2.19Z"/>
      <path class="cls-8" d="M156.81,245.13h-.35v-.93c0-.23-.13-.4-.31-.4-.14,0-.23.11-.23.28v1.05h-.36v-1.08c0-.33.19-.55.48-.55.18,0,.33.09.41.24h.01v-.21h.34v1.6Z"/>
      <path class="cls-8" d="M154.58,243.29h-.47v-.47h.47v.47ZM154.14,243.54h.86v.33h-.5v1.27h-.35v-1.6Z"/>
      <path class="cls-8" d="M152.38,244.69c.03.09.13.15.26.15.25,0,.4-.2.4-.52s-.15-.49-.38-.49c-.13,0-.23.06-.26.15h-.36c.04-.28.3-.47.62-.47.43,0,.73.34.73.82s-.31.84-.74.84c-.31,0-.57-.19-.63-.47h.36Z"/>
      <path class="cls-8" d="M150.65,244.87h-.02c0,.09-.01.17-.02.26h-.34c.01-.19.02-.38.02-.53v-1.07h.34v.27h.01c.09-.19.24-.3.44-.3.37,0,.64.36.64.83s-.27.83-.64.83c-.2,0-.35-.1-.44-.29ZM150.64,244.34c0,.29.16.5.37.5s.37-.22.37-.5-.16-.5-.37-.5-.37.22-.37.5Z"/>
      <path class="cls-8" d="M149.09,244.56v-1.62h.81v.33h-.46v1.29c0,.39-.2.6-.58.6-.12,0-.24-.02-.33-.06v-.3c.09.04.17.06.26.06.2,0,.29-.1.29-.3Z"/>
      <path class="cls-8" d="M146.44,244.57c-.01.35-.32.6-.74.6s-.7-.26-.7-.64c0-.33.21-.54.63-.61l.12-.02c.2-.04.29-.12.29-.26,0-.17-.13-.28-.33-.28-.19,0-.33.1-.35.24h-.34c.01-.33.31-.56.71-.56s.68.25.68.63c0,.32-.2.52-.6.59l-.12.02c-.22.04-.32.13-.32.28,0,.18.14.3.35.3s.36-.12.38-.28h.34Z"/>
      <path class="cls-8" d="M144.62,245.13h-.36v-.43l-.23-.26-.44.69h-.41l.62-.95-.57-.65h.44l.6.69v-1.28h.36v2.19Z"/>
      <path class="cls-8" d="M142.34,243.29h-.47v-.47h.47v.47ZM141.9,243.54h.86v.33h-.5v1.27h-.35v-1.6Z"/>
      <path class="cls-8" d="M140.35,244.56v-1.62h.81v.33h-.46v1.29c0,.39-.2.6-.58.6-.12,0-.24-.02-.33-.06v-.3c.09.04.17.06.26.06.2,0,.29-.1.29-.3Z"/>
      <path class="cls-8" d="M138.61,244.56v-1.62h.81v.33h-.46v1.29c0,.39-.2.6-.58.6-.12,0-.24-.02-.33-.06v-.3c.09.04.17.06.26.06.2,0,.29-.1.29-.3Z"/>
      <path class="cls-8" d="M137.61,244.69c0,.28-.27.49-.63.49s-.63-.22-.63-.54c0-.27.18-.42.57-.46h.08c.15-.03.21-.08.21-.18,0-.12-.09-.19-.25-.19s-.26.07-.27.18h-.33c.01-.27.27-.47.61-.47.35,0,.59.22.59.53,0,.27-.17.42-.54.46h-.08c-.17.03-.24.08-.24.18,0,.12.1.2.25.2s.29-.08.31-.19h.34Z"/>
      <path class="cls-8" d="M163.87,248.67h-.18v-.99h-.99v.99h-.18v-2.07h.18v.92h.99v-.92h.18v2.07Z"/>
      <path class="cls-8" d="M161.54,248.67h-.18v-1.91h-.65v-.17h1.48v.17h-.65v1.91Z"/>
      <path class="cls-8" d="M160.26,246.81h-.01l-.46,1.38h-.17l-.46-1.38h-.01v1.85h-.18v-2.07h.28l.46,1.36h.01l.46-1.36h.28v2.07h-.18v-1.85Z"/>
      <path class="cls-8" d="M158.45,248.67h-1.19v-.17h1.01v-1.91h.18v2.07Z"/>
      <path class="cls-8" d="M156.91,249.17h-.18l-1.24-2.84h.18l1.24,2.84Z"/>
      <path class="cls-8" d="M153.9,248.16c.05.22.24.37.48.37.36,0,.59-.35.59-.89s-.23-.91-.59-.91c-.23,0-.41.14-.45.34h-.17c.05-.29.31-.5.63-.5.46,0,.78.43.78,1.07s-.32,1.07-.78,1.07c-.33,0-.6-.22-.65-.53h.17Z"/>
      <path class="cls-8" d="M153.38,248.16c-.01.31-.3.54-.68.54s-.67-.25-.67-.59c0-.3.21-.49.6-.58l.12-.03c.26-.06.39-.18.39-.39,0-.23-.17-.39-.43-.39-.25,0-.44.14-.47.34h-.18c.02-.29.3-.5.65-.5s.61.23.61.56c0,.29-.19.48-.54.55l-.12.03c-.29.07-.44.2-.44.41,0,.25.2.42.5.42.28,0,.48-.16.5-.38h.17Z"/>
      <path class="cls-8" d="M151.64,248.16c-.01.31-.3.54-.68.54s-.68-.25-.68-.59c0-.3.21-.49.6-.58l.12-.03c.26-.06.39-.18.39-.39,0-.23-.17-.39-.43-.39-.25,0-.44.14-.47.34h-.17c.02-.29.3-.5.65-.5s.61.23.61.56c0,.29-.19.48-.54.55l-.12.03c-.29.07-.44.2-.44.41,0,.25.2.42.5.42.27,0,.48-.16.5-.38h.17Z"/>
      <path class="cls-8" d="M149.92,249.17h-.18l-1.24-2.84h.18l1.24,2.84Z"/>
      <path class="cls-8" d="M148.16,248.16c0,.31-.28.53-.63.53s-.63-.24-.63-.56v-1.54h1.04v.17h-.85v1.37c0,.24.18.4.45.4s.44-.15.46-.37h.17Z"/>
      <path class="cls-8" d="M145.29,248.36h-.01c0,.1-.01.2-.02.3h-.17c.01-.19.02-.38.02-.53v-1.07h.16v.32h.01c.1-.22.28-.35.51-.35.38,0,.65.35.65.83s-.28.83-.65.83c-.22,0-.4-.12-.5-.33ZM145.28,247.87c0,.4.2.67.48.67s.5-.28.5-.67-.21-.67-.51-.67-.48.27-.48.67Z"/>
      <path class="cls-8" d="M144.07,248.67h-.23l-.53-1.6h.18l.45,1.41h.01l.47-1.41h.18l-.54,1.6Z"/>
      <path class="cls-8" d="M141.8,248.36h-.01c0,.1-.01.2-.02.3h-.17c.01-.19.02-.38.02-.53v-1.07h.16v.32h.02c.1-.22.28-.35.51-.35.38,0,.65.35.65.83s-.28.83-.65.83c-.22,0-.4-.12-.5-.33ZM141.79,247.87c0,.4.2.67.48.67s.5-.28.5-.67-.21-.67-.51-.67-.48.27-.48.67Z"/>
      <path class="cls-8" d="M141.05,248.28c-.02.24-.27.43-.59.43-.33,0-.57-.2-.57-.49,0-.24.16-.37.51-.43h.07c.24-.05.34-.13.34-.28,0-.18-.14-.31-.36-.31-.2,0-.35.11-.38.26h-.17c.02-.24.26-.41.56-.41s.52.2.52.47c0,.24-.16.37-.51.43h-.07c-.25.06-.35.13-.35.28,0,.19.16.32.39.32.22,0,.4-.12.42-.27h.17Z"/>
      <path class="cls-8" d="M138.24,248.28c.05.16.21.26.41.26.32,0,.53-.28.53-.67s-.21-.68-.53-.68c-.19,0-.34.1-.39.26h-.17c.04-.25.28-.41.56-.41.41,0,.7.35.7.83s-.3.83-.71.83c-.29,0-.53-.17-.57-.41h.17Z"/>
      <path class="cls-8" d="M137.26,248.67v-.92c0-.32-.17-.54-.43-.54-.16,0-.28.09-.31.25h-.18c.03-.25.21-.41.46-.41.21,0,.38.12.46.3h.01v-.28h.16v1.6h-.18Z"/>
      <path class="cls-8" d="M135.28,246.66h-.31v-.31h.31v.31ZM135,247.07h.74v.15h-.56v1.44h-.18v-1.6Z"/>
      <path class="cls-8" d="M134.09,247.07v2.19h-.18v-.88h-.02c-.1.2-.27.32-.49.32-.38,0-.65-.35-.65-.83s.27-.83.65-.83c.23,0,.41.13.51.35h.01v-.32h.16ZM133.42,247.19c-.29,0-.49.27-.49.67s.2.67.49.67.5-.28.5-.67-.21-.67-.5-.67Z"/>
      <path class="cls-8" d="M131.75,248.15v-.93h-.58v-.15h.58v-.5l.18.03v.47h.47v.15h-.47v.93c0,.35-.17.54-.49.54-.12,0-.22-.02-.3-.07v-.15c.09.05.18.07.28.07.22,0,.33-.13.33-.39Z"/>
      <path class="cls-8" d="M130.7,249.17h-.18l-1.24-2.84h.18l1.24,2.84Z"/>
      <path class="cls-8" d="M128.33,248.67h-.18v-1.91h-.65v-.17h1.48v.17h-.65v1.91Z"/>
      <path class="cls-8" d="M127.17,249.09v.15c-.08.02-.14.03-.2.03-.24,0-.4-.14-.51-.45l-.65-1.76h.18l.49,1.37h.01l.49-1.37h.19l-.59,1.6.04.1c.09.25.2.35.38.35.06,0,.11,0,.17-.03Z"/>
      <path class="cls-8" d="M125.35,247.07v2.19h-.18v-.88h-.02c-.1.2-.27.32-.49.32-.38,0-.65-.35-.65-.83s.27-.83.65-.83c.23,0,.41.13.51.35h.01v-.32h.16ZM124.68,247.19c-.29,0-.48.27-.48.67s.2.67.48.67.5-.28.5-.67-.21-.67-.5-.67Z"/>
      <path class="cls-8" d="M123.47,247.88h-1.12v-.07c0-.46.26-.77.64-.77s.66.34.66.82-.29.84-.7.84c-.28,0-.51-.17-.57-.41h.17c.06.16.21.25.4.25.31,0,.52-.26.53-.65ZM122.98,247.2c-.26,0-.45.22-.46.54h.94c-.04-.33-.22-.54-.48-.54Z"/>
      <path class="cls-8" d="M121.83,248.28c-.02.24-.27.43-.59.43-.33,0-.57-.2-.57-.49,0-.24.16-.37.51-.43h.07c.24-.05.34-.13.34-.28,0-.18-.14-.31-.36-.31-.2,0-.36.11-.38.26h-.17c.02-.24.26-.41.56-.41s.52.2.52.47c0,.24-.16.37-.51.43h-.07c-.25.06-.35.13-.35.28,0,.19.16.32.39.32.22,0,.4-.12.42-.27h.18Z"/>
      <path class="cls-8" d="M119.02,248.28c.05.16.21.26.41.26.32,0,.53-.28.53-.67s-.21-.68-.53-.68c-.19,0-.34.1-.39.26h-.17c.04-.25.28-.41.56-.41.41,0,.7.35.7.83s-.3.83-.71.83c-.29,0-.53-.17-.57-.41h.17Z"/>
      <path class="cls-8" d="M118.04,248.67v-.92c0-.32-.17-.54-.43-.54-.16,0-.28.09-.31.25h-.18c.03-.25.21-.41.46-.41.21,0,.38.12.46.3h.01v-.28h.16v1.6h-.18Z"/>
      <path class="cls-8" d="M116.06,246.66h-.31v-.31h.31v.31ZM115.78,247.07h.74v.15h-.56v1.44h-.18v-1.6Z"/>
      <path class="cls-8" d="M114.87,247.07v2.19h-.18v-.88h-.01c-.1.2-.27.32-.49.32-.38,0-.65-.35-.65-.83s.27-.83.65-.83c.23,0,.41.13.51.35h.01v-.32h.16ZM114.2,247.19c-.29,0-.49.27-.49.67s.2.67.49.67.5-.28.5-.67-.2-.67-.5-.67Z"/>
      <path class="cls-8" d="M112.53,248.15v-.93h-.58v-.15h.58v-.5l.18.03v.47h.47v.15h-.47v.93c0,.35-.17.54-.49.54-.12,0-.21-.02-.29-.07v-.15c.09.05.18.07.28.07.22,0,.33-.13.33-.39Z"/>
      <path class="cls-8" d="M109.58,247.83h-1.12v-.16h1.12v.16Z"/>
      <path class="cls-8" d="M106.11,248.67h-.18v-.93h-.58c-.33,0-.57-.24-.57-.57s.23-.57.57-.57h.77v2.07ZM105.93,247.57v-.81h-.6c-.22,0-.37.16-.37.41s.15.41.37.41h.6Z"/>
      <path class="cls-8" d="M104.06,248.67v-.92c0-.32-.17-.54-.43-.54-.16,0-.28.09-.31.25h-.18c.03-.25.21-.41.46-.41.21,0,.38.12.46.3h.01v-.28h.16v1.6h-.18Z"/>
      <path class="cls-8" d="M102.03,248.69c-.4,0-.68-.35-.68-.83s.29-.83.68-.83.68.35.68.83-.29.83-.68.83ZM102.03,248.54c.3,0,.5-.28.5-.67s-.21-.67-.5-.67-.5.28-.5.67.21.67.5.67Z"/>
      <path class="cls-8" d="M99.8,248.28c.05.16.21.26.41.26.32,0,.53-.28.53-.67s-.21-.68-.53-.68c-.19,0-.34.1-.39.26h-.17c.04-.25.28-.41.56-.41.41,0,.71.35.71.83s-.3.83-.71.83c-.29,0-.53-.17-.57-.41h.17Z"/>
      <path class="cls-8" d="M99,247.88h-1.12v-.07c0-.46.26-.77.64-.77s.66.34.66.82-.29.84-.7.84c-.28,0-.51-.17-.58-.41h.17c.06.16.21.25.4.25.31,0,.52-.26.53-.65ZM98.51,247.2c-.26,0-.45.22-.46.54h.95c-.04-.33-.22-.54-.48-.54Z"/>
      <path class="cls-8" d="M97.36,248.28c-.02.24-.27.43-.59.43s-.57-.2-.57-.49c0-.24.16-.37.51-.43h.07c.24-.05.34-.13.34-.28,0-.18-.15-.31-.36-.31-.2,0-.35.11-.38.26h-.17c.02-.24.26-.41.56-.41s.52.2.52.47c0,.24-.16.37-.51.43h-.07c-.25.06-.35.13-.35.28,0,.19.16.32.39.32.22,0,.4-.12.42-.27h.17Z"/>
      <path class="cls-8" d="M95.62,248.28c-.02.24-.27.43-.59.43s-.57-.2-.57-.49c0-.24.16-.37.51-.43h.07c.24-.05.34-.13.34-.28,0-.18-.15-.31-.36-.31-.2,0-.36.11-.38.26h-.17c.02-.24.26-.41.56-.41s.52.2.52.47c0,.24-.16.37-.51.43h-.07c-.25.06-.35.13-.35.28,0,.19.16.32.39.32.22,0,.4-.12.42-.27h.17Z"/>
      <path class="cls-8" d="M93.34,246.66h-.31v-.31h.31v.31ZM93.06,247.07h.74v.15h-.56v1.44h-.18v-1.6Z"/>
      <path class="cls-8" d="M92.09,248.67h-.18v-.92c0-.33-.18-.56-.43-.56-.21,0-.35.16-.35.41v1.07h-.18v-1.08c0-.33.2-.55.5-.55.21,0,.38.11.47.3h0v-.27h.16v1.6Z"/>
      <path class="cls-8" d="M89.39,248.32v.4c0,.24.18.42.43.42.22,0,.39-.13.42-.32h.18c-.02.28-.28.48-.59.48-.35,0-.61-.25-.61-.58v-1.65h.16v.29h.01c.1-.2.26-.32.47-.32.35,0,.61.34.61.78s-.27.78-.62.78c-.2,0-.35-.11-.45-.29h0ZM89.84,248.45c.26,0,.45-.27.45-.63s-.19-.63-.45-.63-.45.27-.45.63.19.63.45.63Z"/>
      <path class="cls-8" d="M88.76,249.17h-.18l-1.24-2.84h.18l1.24,2.84Z"/>
      <path class="cls-8" d="M86.89,248.67h-.18v-.93h-.58c-.33,0-.57-.24-.57-.57s.23-.57.57-.57h.77v2.07ZM86.71,247.57v-.81h-.6c-.22,0-.37.16-.37.41s.15.41.37.41h.6Z"/>
      <path class="cls-8" d="M85.03,248.16h.17c-.04.31-.3.53-.65.53-.39,0-.67-.28-.67-.66s.27-.66.63-.66c.16,0,.3.06.41.16h.01s-.08-.77-.08-.77h-.87v-.16h1.02l.12,1.13-.15.02c-.08-.14-.23-.22-.41-.22-.29,0-.5.22-.5.51s.21.5.49.5c.24,0,.44-.15.46-.37Z"/>
      <path class="cls-8" d="M82.97,248.67h-.33v-.33h.33v.33Z"/>
      <path class="cls-8" d="M81.06,246.66h-.31v-.31h.31v.31ZM80.79,248.75v-1.68h.77v.15h-.59v1.52c0,.27.11.39.33.39.09,0,.19-.02.28-.07v.15c-.08.05-.18.07-.3.07-.32,0-.49-.19-.49-.54Z"/>
      <path class="cls-8" d="M79.89,248.28c-.02.24-.27.43-.59.43-.33,0-.57-.2-.57-.49,0-.24.16-.37.51-.43h.07c.24-.05.34-.13.34-.28,0-.18-.14-.31-.35-.31-.2,0-.36.11-.38.26h-.17c.02-.24.26-.41.56-.41s.52.2.52.47c0,.24-.16.37-.51.43h-.07c-.25.06-.35.13-.35.28,0,.19.16.32.39.32.22,0,.4-.12.42-.27h.17Z"/>
      <path class="cls-8" d="M76.37,247.83h-1.12v-.16h1.12v.16Z"/>
      <path class="cls-8" d="M72.44,248.67h-.24l-.68-2.07h.19l.6,1.86h.01l.6-1.86h.19l-.68,2.07Z"/>
      <path class="cls-8" d="M70.02,248.13v-1.07h.18v.92c0,.33.18.56.43.56.21,0,.35-.16.35-.41v-1.07h.18v1.08c0,.33-.2.55-.5.55-.21,0-.37-.1-.46-.28h-.01c0,.08-.01.17-.02.25h-.17c.01-.19.02-.38.02-.53Z"/>
      <path class="cls-8" d="M69.29,247.88h-1.12v-.07c0-.46.26-.77.64-.77s.66.34.66.82-.29.84-.7.84c-.28,0-.51-.17-.57-.41h.17c.06.16.21.25.4.25.31,0,.52-.26.53-.65ZM68.8,247.2c-.26,0-.45.22-.46.54h.94c-.04-.33-.23-.54-.48-.54Z"/>
      <path class="cls-8" d="M67.77,248.16c0,.31-.28.53-.63.53s-.63-.24-.63-.56v-1.54h1.04v.17h-.85v1.37c0,.24.18.4.45.4s.44-.15.46-.37h.17Z"/>
      <path class="cls-8" d="M66,248.16c-.01.31-.3.54-.68.54s-.67-.25-.67-.59c0-.3.2-.49.6-.58l.12-.03c.26-.06.39-.18.39-.39,0-.23-.17-.39-.43-.39-.25,0-.44.14-.47.34h-.17c.02-.29.3-.5.65-.5s.61.23.61.56c0,.29-.19.48-.54.55l-.12.03c-.29.07-.44.2-.44.41,0,.25.2.42.5.42.28,0,.48-.16.5-.38h.17Z"/>
      <path class="cls-8" d="M62.39,247.83h-1.12v-.16h1.12v.16Z"/>
      <path class="cls-8" d="M58.97,248.67h-.58c-.49,0-.83-.42-.83-1.04s.34-1.04.83-1.04h.58v2.07ZM58.78,248.5v-1.74h-.39c-.39,0-.64.34-.64.87s.25.87.64.87h.39Z"/>
      <path class="cls-8" d="M56.58,248.69c-.4,0-.68-.35-.68-.83s.29-.83.68-.83.68.35.68.83-.29.83-.68.83ZM56.58,248.54c.3,0,.5-.28.5-.67s-.21-.67-.5-.67-.5.28-.5.67.21.67.5.67Z"/>
      <path class="cls-8" d="M54.35,248.28c.05.16.21.26.41.26.32,0,.53-.28.53-.67s-.21-.68-.53-.68c-.19,0-.34.1-.39.26h-.17c.04-.25.28-.41.56-.41.41,0,.7.35.7.83s-.3.83-.71.83c-.29,0-.53-.17-.57-.41h.17Z"/>
      <path class="cls-8" d="M53.66,248.67h-.18v-.48l-.32-.33-.58.82h-.22l.68-.95-.62-.65h.24l.83.88v-1.47h.18v2.19Z"/>
      <path class="cls-8" d="M51.81,247.88h-1.12v-.07c0-.46.26-.77.64-.77s.66.34.66.82-.29.84-.7.84c-.28,0-.51-.17-.57-.41h.17c.06.16.21.25.4.25.31,0,.52-.26.53-.65ZM51.32,247.2c-.26,0-.45.22-.46.54h.94c-.04-.33-.23-.54-.48-.54Z"/>
      <path class="cls-8" d="M49.87,248.67v-.92c0-.32-.17-.54-.43-.54-.16,0-.28.09-.31.25h-.18c.03-.25.21-.41.46-.41.21,0,.38.12.46.3h.01v-.28h.16v1.6h-.18Z"/>
      <path class="cls-8" d="M46.66,247.83h-1.12v-.16h1.12v.16Z"/>
      <path class="cls-8" d="M42.08,248.4h.01l.94-1.81h.26v2.07h-.17v-1.87h-.01l-.97,1.87h-.23v-2.07h.17v1.81Z"/>
      <path class="cls-8" d="M40.85,248.69c-.4,0-.68-.35-.68-.83s.29-.83.68-.83.68.35.68.83-.29.83-.68.83ZM40.85,248.54c.3,0,.5-.28.5-.67s-.21-.67-.5-.67-.5.28-.5.67.21.67.5.67Z"/>
      <path class="cls-8" d="M38.64,248.67h-.17c.01-.19.02-.38.02-.53v-1.66h.18v.88h.01c.1-.2.27-.32.49-.32.38,0,.65.35.65.83s-.27.83-.65.83c-.22,0-.4-.12-.5-.33h-.01c0,.1-.01.2-.02.3ZM39.15,248.54c.29,0,.5-.28.5-.67s-.21-.67-.51-.67-.48.27-.48.67.19.67.48.67Z"/>
      <path class="cls-8" d="M37.83,247.88h-1.12v-.07c0-.46.26-.77.64-.77s.66.34.66.82-.29.84-.7.84c-.28,0-.51-.17-.57-.41h.17c.06.16.21.25.4.25.31,0,.52-.26.53-.65ZM37.34,247.2c-.26,0-.45.22-.46.54h.94c-.04-.33-.23-.54-.48-.54Z"/>
      <path class="cls-8" d="M36.3,248.16c0,.31-.28.53-.63.53s-.63-.24-.63-.56v-1.54h1.04v.17h-.85v1.37c0,.24.18.4.45.4s.44-.15.46-.37h.17Z"/>
      <path class="cls-8" d="M34.54,248.16c-.01.31-.3.54-.68.54s-.67-.25-.67-.59c0-.3.2-.49.6-.58l.12-.03c.26-.06.39-.18.39-.39,0-.23-.17-.39-.43-.39-.25,0-.44.14-.47.34h-.17c.02-.29.3-.5.65-.5s.61.23.61.56c0,.29-.19.48-.54.55l-.12.03c-.29.07-.44.2-.44.41,0,.25.2.42.5.42.28,0,.48-.16.5-.38h.17Z"/>
      <path class="cls-8" d="M30.92,247.83h-1.12v-.16h1.12v.16Z"/>
      <path class="cls-8" d="M26.96,248.67h-.18v-1.91h-.65v-.17h1.48v.17h-.65v1.91Z"/>
      <path class="cls-8" d="M25.67,248.67h-.18v-.92c0-.32-.18-.56-.44-.56-.21,0-.35.16-.35.41v1.07h-.18v-1.08c0-.33.2-.55.49-.55.2,0,.36.11.46.28h.01v-.84h.18v2.19Z"/>
      <path class="cls-8" d="M23.65,248.67v-.92c0-.32-.17-.54-.43-.54-.16,0-.28.09-.31.25h-.18c.03-.25.21-.41.46-.41.21,0,.38.12.46.3h.01v-.28h.16v1.6h-.18Z"/>
      <path class="cls-8" d="M22.09,247.88h-1.12v-.07c0-.46.26-.77.64-.77s.66.34.66.82-.29.84-.7.84c-.28,0-.51-.17-.57-.41h.17c.06.16.21.25.4.25.31,0,.52-.26.53-.65ZM21.6,247.2c-.26,0-.45.22-.46.54h.94c-.04-.33-.23-.54-.48-.54Z"/>
      <path class="cls-8" d="M20.34,247.88h-1.12v-.07c0-.46.26-.77.64-.77s.66.34.66.82-.29.84-.7.84c-.28,0-.51-.17-.57-.41h.17c.06.16.21.25.4.25.31,0,.52-.26.53-.65ZM19.86,247.2c-.26,0-.45.22-.46.54h.94c-.04-.33-.23-.54-.48-.54Z"/>
      <path class="cls-8" d="M18.82,248.16c0,.31-.28.53-.63.53s-.63-.24-.63-.56v-1.54h1.04v.17h-.85v1.37c0,.24.18.4.45.4s.44-.15.46-.37h.17Z"/>
      <path class="cls-8" d="M17.06,248.16c-.01.31-.3.54-.68.54s-.67-.25-.67-.59c0-.3.2-.49.6-.58l.12-.03c.26-.06.39-.18.39-.39,0-.23-.17-.39-.43-.39-.25,0-.44.14-.47.34h-.17c.02-.29.3-.5.65-.5s.61.23.61.56c0,.29-.19.48-.54.55l-.12.03c-.29.07-.44.2-.44.41,0,.25.2.42.5.42.28,0,.48-.16.5-.38h.17Z"/>
    </g>
  </g>
</svg>