<?xml version="1.0" encoding="utf-8"?>
<!-- Generator: Adobe Illustrator 28.2.0, SVG Export Plug-In . SVG Version: 6.00 Build 0)  -->
<svg version="1.1" id="Layer_1" xmlns="http://www.w3.org/2000/svg" xmlns:xlink="http://www.w3.org/1999/xlink" x="0px" y="0px"
	 viewBox="0 0 70.7 70.7" style="enable-background:new 0 0 70.7 70.7;" xml:space="preserve">
<path d="M68,21.7c-1.8-4.3-4.4-8-7.7-11.3C57,7.2,53.3,4.6,49,2.8C44.7,0.9,40.2,0,35.3,0C30.5,0,26,0.9,21.7,2.8s-8,4.4-11.3,7.7
	s-5.8,7-7.7,11.3C0.9,26,0,30.5,0,35.4S0.9,44.8,2.8,49c1.8,4.3,4.4,8,7.7,11.3s7,5.8,11.3,7.7c4.3,1.8,8.8,2.8,13.6,2.8
	s9.3-1,13.6-2.8s8-4.4,11.3-7.7s5.8-7,7.7-11.3s2.8-8.8,2.8-13.6C70.7,30.5,69.8,26,68,21.7z M62,48H35.3v-3.6h28.2
	c-0.3,0.8-0.6,1.7-0.9,2.5C62.4,47.2,62.2,47.6,62,48z M35.3,55.4v-3.6h24.5C59,53.1,58,54.3,57,55.4H35.3z M56.3,14.6
	c1.1,1.1,2.1,2.3,3,3.6h-24v-3.6H56.3z M35.3,40.5v-3.6h29.5c-0.1,1.2-0.2,2.4-0.4,3.6H35.3z M35.3,33.1v-3.6h28.9
	c0.2,1.2,0.4,2.4,0.5,3.6H35.3z M35.3,25.7V22h26.3c0.3,0.6,0.6,1.2,0.9,1.8c0.2,0.6,0.5,1.2,0.7,1.8H35.3V25.7z M51.7,10.8H35.3
	V7.2h8.8c0.9,0.3,1.8,0.6,2.7,1C48.6,8.9,50.2,9.8,51.7,10.8z M46.8,62.6c-0.9,0.4-1.8,0.7-2.7,1h-8.8V60h16.3
	C50.2,61,48.5,61.8,46.8,62.6z"/>
</svg>
